ISO-10303-21;
HEADER;
/* Generated by software containing ST-Developer
 * from STEP Tools, Inc. (www.steptools.com) 
 */

FILE_DESCRIPTION(
/* description */ (''),
/* implementation_level */ '2;1');

FILE_NAME(
/* name */ 'WareOps_BOT.step',
/* time_stamp */ '2026-08-06T23:03:48+05:30',
/* author */ (''),
/* organization */ (''),
/* preprocessor_version */ 'ST-DEVELOPER v20.1',
/* originating_system */ 'Autodesk Translation Framework v15.8.0.0',
/* authorisation */ '');

FILE_SCHEMA (('AUTOMOTIVE_DESIGN { 1 0 10303 214 3 1 1 }'));
ENDSEC;

DATA;
#10=MECHANICAL_DESIGN_GEOMETRIC_PRESENTATION_REPRESENTATION('',(#13),#1427);
#11=SHAPE_REPRESENTATION_RELATIONSHIP('SRR','None',#1434,#12);
#12=ADVANCED_BREP_SHAPE_REPRESENTATION('',(#14),#1426);
#13=STYLED_ITEM('',(#1443),#14);
#14=MANIFOLD_SOLID_BREP('Body1',#821);
#15=FACE_BOUND('',#103,.T.);
#16=PLANE('',#848);
#17=PLANE('',#851);
#18=PLANE('',#854);
#19=PLANE('',#855);
#20=PLANE('',#861);
#21=PLANE('',#862);
#22=PLANE('',#865);
#23=PLANE('',#872);
#24=PLANE('',#877);
#25=PLANE('',#878);
#26=PLANE('',#879);
#27=PLANE('',#880);
#28=PLANE('',#881);
#29=PLANE('',#882);
#30=PLANE('',#883);
#31=PLANE('',#884);
#32=PLANE('',#885);
#33=PLANE('',#886);
#34=PLANE('',#887);
#35=PLANE('',#888);
#36=PLANE('',#889);
#37=PLANE('',#890);
#38=PLANE('',#891);
#39=PLANE('',#892);
#40=PLANE('',#893);
#41=PLANE('',#894);
#42=PLANE('',#895);
#43=PLANE('',#896);
#44=PLANE('',#897);
#45=SPHERICAL_SURFACE('',#846,5.);
#46=SPHERICAL_SURFACE('',#870,5.);
#47=B_SPLINE_SURFACE_WITH_KNOTS('',3,3,((#1139,#1140,#1141,#1142,#1143,
#1144),(#1145,#1146,#1147,#1148,#1149,#1150),(#1151,#1152,#1153,#1154,#1155,
#1156),(#1157,#1158,#1159,#1160,#1161,#1162),(#1163,#1164,#1165,#1166,#1167,
#1168),(#1169,#1170,#1171,#1172,#1173,#1174)),.UNSPECIFIED.,.F.,.F.,.F.,
(4,1,1,4),(4,1,1,4),(0.,0.285714285714286,0.571428571428571,1.),(0.,0.673198425769242,
1.12199737628207,1.5707963267949),.UNSPECIFIED.);
#48=B_SPLINE_SURFACE_WITH_KNOTS('',3,3,((#1292,#1293,#1294,#1295,#1296,
#1297),(#1298,#1299,#1300,#1301,#1302,#1303),(#1304,#1305,#1306,#1307,#1308,
#1309),(#1310,#1311,#1312,#1313,#1314,#1315),(#1316,#1317,#1318,#1319,#1320,
#1321),(#1322,#1323,#1324,#1325,#1326,#1327)),.UNSPECIFIED.,.F.,.F.,.F.,
(4,1,1,4),(4,1,1,4),(0.,0.285714285714286,0.571428571428571,1.),(-1.5707963267949,
-0.897597901025656,-0.448798950512828,0.),.UNSPECIFIED.);
#49=FACE_OUTER_BOUND('',#92,.T.);
#50=FACE_OUTER_BOUND('',#93,.T.);
#51=FACE_OUTER_BOUND('',#94,.T.);
#52=FACE_OUTER_BOUND('',#95,.T.);
#53=FACE_OUTER_BOUND('',#96,.T.);
#54=FACE_OUTER_BOUND('',#97,.T.);
#55=FACE_OUTER_BOUND('',#98,.T.);
#56=FACE_OUTER_BOUND('',#99,.T.);
#57=FACE_OUTER_BOUND('',#100,.T.);
#58=FACE_OUTER_BOUND('',#101,.T.);
#59=FACE_OUTER_BOUND('',#102,.T.);
#60=FACE_OUTER_BOUND('',#104,.T.);
#61=FACE_OUTER_BOUND('',#105,.T.);
#62=FACE_OUTER_BOUND('',#106,.T.);
#63=FACE_OUTER_BOUND('',#107,.T.);
#64=FACE_OUTER_BOUND('',#108,.T.);
#65=FACE_OUTER_BOUND('',#109,.T.);
#66=FACE_OUTER_BOUND('',#110,.T.);
#67=FACE_OUTER_BOUND('',#111,.T.);
#68=FACE_OUTER_BOUND('',#112,.T.);
#69=FACE_OUTER_BOUND('',#113,.T.);
#70=FACE_OUTER_BOUND('',#114,.T.);
#71=FACE_OUTER_BOUND('',#115,.T.);
#72=FACE_OUTER_BOUND('',#116,.T.);
#73=FACE_OUTER_BOUND('',#117,.T.);
#74=FACE_OUTER_BOUND('',#118,.T.);
#75=FACE_OUTER_BOUND('',#119,.T.);
#76=FACE_OUTER_BOUND('',#120,.T.);
#77=FACE_OUTER_BOUND('',#121,.T.);
#78=FACE_OUTER_BOUND('',#122,.T.);
#79=FACE_OUTER_BOUND('',#123,.T.);
#80=FACE_OUTER_BOUND('',#124,.T.);
#81=FACE_OUTER_BOUND('',#125,.T.);
#82=FACE_OUTER_BOUND('',#126,.T.);
#83=FACE_OUTER_BOUND('',#127,.T.);
#84=FACE_OUTER_BOUND('',#128,.T.);
#85=FACE_OUTER_BOUND('',#129,.T.);
#86=FACE_OUTER_BOUND('',#130,.T.);
#87=FACE_OUTER_BOUND('',#131,.T.);
#88=FACE_OUTER_BOUND('',#132,.T.);
#89=FACE_OUTER_BOUND('',#133,.T.);
#90=FACE_OUTER_BOUND('',#134,.T.);
#91=FACE_OUTER_BOUND('',#135,.T.);
#92=EDGE_LOOP('',(#536,#537,#538,#539));
#93=EDGE_LOOP('',(#540,#541,#542,#543));
#94=EDGE_LOOP('',(#544,#545,#546,#547));
#95=EDGE_LOOP('',(#548,#549,#550,#551));
#96=EDGE_LOOP('',(#552,#553,#554));
#97=EDGE_LOOP('',(#555,#556,#557,#558));
#98=EDGE_LOOP('',(#559,#560,#561,#562));
#99=EDGE_LOOP('',(#563,#564,#565,#566));
#100=EDGE_LOOP('',(#567,#568,#569,#570));
#101=EDGE_LOOP('',(#571,#572,#573,#574));
#102=EDGE_LOOP('',(#575,#576,#577,#578,#579,#580,#581,#582));
#103=EDGE_LOOP('',(#583,#584,#585,#586));
#104=EDGE_LOOP('',(#587,#588,#589,#590));
#105=EDGE_LOOP('',(#591,#592,#593,#594));
#106=EDGE_LOOP('',(#595,#596,#597,#598,#599,#600,#601,#602,#603,#604));
#107=EDGE_LOOP('',(#605,#606,#607,#608));
#108=EDGE_LOOP('',(#609,#610,#611,#612,#613,#614,#615,#616,#617,#618,#619));
#109=EDGE_LOOP('',(#620,#621,#622,#623));
#110=EDGE_LOOP('',(#624,#625,#626));
#111=EDGE_LOOP('',(#627,#628,#629,#630,#631,#632,#633,#634,#635,#636));
#112=EDGE_LOOP('',(#637,#638,#639,#640));
#113=EDGE_LOOP('',(#641,#642,#643,#644));
#114=EDGE_LOOP('',(#645,#646,#647,#648));
#115=EDGE_LOOP('',(#649,#650,#651,#652,#653,#654));
#116=EDGE_LOOP('',(#655,#656,#657,#658,#659,#660));
#117=EDGE_LOOP('',(#661,#662,#663,#664,#665,#666));
#118=EDGE_LOOP('',(#667,#668,#669,#670));
#119=EDGE_LOOP('',(#671,#672,#673,#674,#675,#676));
#120=EDGE_LOOP('',(#677,#678,#679,#680));
#121=EDGE_LOOP('',(#681,#682,#683,#684));
#122=EDGE_LOOP('',(#685,#686,#687,#688));
#123=EDGE_LOOP('',(#689,#690,#691,#692,#693,#694,#695,#696,#697,#698));
#124=EDGE_LOOP('',(#699,#700,#701,#702));
#125=EDGE_LOOP('',(#703,#704,#705,#706));
#126=EDGE_LOOP('',(#707,#708,#709,#710,#711,#712,#713,#714));
#127=EDGE_LOOP('',(#715,#716,#717,#718,#719,#720,#721,#722));
#128=EDGE_LOOP('',(#723,#724,#725,#726));
#129=EDGE_LOOP('',(#727,#728,#729,#730));
#130=EDGE_LOOP('',(#731,#732,#733,#734));
#131=EDGE_LOOP('',(#735,#736,#737,#738));
#132=EDGE_LOOP('',(#739,#740,#741,#742,#743,#744,#745,#746,#747,#748));
#133=EDGE_LOOP('',(#749,#750,#751,#752));
#134=EDGE_LOOP('',(#753,#754,#755,#756));
#135=EDGE_LOOP('',(#757,#758,#759,#760,#761,#762,#763,#764,#765,#766,#767));
#136=CIRCLE('',#837,4.99999999999999);
#137=CIRCLE('',#840,5.00000000000001);
#138=CIRCLE('',#841,5.);
#139=CIRCLE('',#845,5.00000000000001);
#140=CIRCLE('',#847,5.);
#141=CIRCLE('',#850,5.);
#142=CIRCLE('',#869,4.99999999999999);
#143=CIRCLE('',#871,5.);
#144=CIRCLE('',#874,5.);
#145=CIRCLE('',#875,5.00000000000001);
#146=LINE('',#1126,#240);
#147=LINE('',#1129,#241);
#148=LINE('',#1135,#242);
#149=LINE('',#1138,#243);
#150=LINE('',#1183,#244);
#151=LINE('',#1184,#245);
#152=LINE('',#1189,#246);
#153=LINE('',#1191,#247);
#154=LINE('',#1192,#248);
#155=LINE('',#1195,#249);
#156=LINE('',#1199,#250);
#157=LINE('',#1200,#251);
#158=LINE('',#1203,#252);
#159=LINE('',#1207,#253);
#160=LINE('',#1208,#254);
#161=LINE('',#1211,#255);
#162=LINE('',#1215,#256);
#163=LINE('',#1219,#257);
#164=LINE('',#1223,#258);
#165=LINE('',#1225,#259);
#166=LINE('',#1227,#260);
#167=LINE('',#1228,#261);
#168=LINE('',#1233,#262);
#169=LINE('',#1234,#263);
#170=LINE('',#1237,#264);
#171=LINE('',#1238,#265);
#172=LINE('',#1241,#266);
#173=LINE('',#1243,#267);
#174=LINE('',#1245,#268);
#175=LINE('',#1247,#269);
#176=LINE('',#1249,#270);
#177=LINE('',#1251,#271);
#178=LINE('',#1253,#272);
#179=LINE('',#1256,#273);
#180=LINE('',#1259,#274);
#181=LINE('',#1261,#275);
#182=LINE('',#1263,#276);
#183=LINE('',#1265,#277);
#184=LINE('',#1267,#278);
#185=LINE('',#1269,#279);
#186=LINE('',#1272,#280);
#187=LINE('',#1280,#281);
#188=LINE('',#1282,#282);
#189=LINE('',#1284,#283);
#190=LINE('',#1286,#284);
#191=LINE('',#1288,#285);
#192=LINE('',#1289,#286);
#193=LINE('',#1332,#287);
#194=LINE('',#1334,#288);
#195=LINE('',#1336,#289);
#196=LINE('',#1337,#290);
#197=LINE('',#1340,#291);
#198=LINE('',#1342,#292);
#199=LINE('',#1344,#293);
#200=LINE('',#1346,#294);
#201=LINE('',#1347,#295);
#202=LINE('',#1350,#296);
#203=LINE('',#1352,#297);
#204=LINE('',#1354,#298);
#205=LINE('',#1355,#299);
#206=LINE('',#1357,#300);
#207=LINE('',#1360,#301);
#208=LINE('',#1362,#302);
#209=LINE('',#1364,#303);
#210=LINE('',#1366,#304);
#211=LINE('',#1367,#305);
#212=LINE('',#1369,#306);
#213=LINE('',#1370,#307);
#214=LINE('',#1373,#308);
#215=LINE('',#1374,#309);
#216=LINE('',#1377,#310);
#217=LINE('',#1378,#311);
#218=LINE('',#1381,#312);
#219=LINE('',#1383,#313);
#220=LINE('',#1385,#314);
#221=LINE('',#1386,#315);
#222=LINE('',#1388,#316);
#223=LINE('',#1389,#317);
#224=LINE('',#1392,#318);
#225=LINE('',#1393,#319);
#226=LINE('',#1396,#320);
#227=LINE('',#1397,#321);
#228=LINE('',#1399,#322);
#229=LINE('',#1401,#323);
#230=LINE('',#1402,#324);
#231=LINE('',#1405,#325);
#232=LINE('',#1406,#326);
#233=LINE('',#1407,#327);
#234=LINE('',#1412,#328);
#235=LINE('',#1413,#329);
#236=LINE('',#1416,#330);
#237=LINE('',#1417,#331);
#238=LINE('',#1419,#332);
#239=LINE('',#1420,#333);
#240=VECTOR('',#904,10.);
#241=VECTOR('',#907,10.);
#242=VECTOR('',#912,10.);
#243=VECTOR('',#915,10.);
#244=VECTOR('',#926,10.);
#245=VECTOR('',#927,10.);
#246=VECTOR('',#934,10.);
#247=VECTOR('',#935,10.);
#248=VECTOR('',#936,10.);
#249=VECTOR('',#939,10.);
#250=VECTOR('',#944,10.);
#251=VECTOR('',#945,10.);
#252=VECTOR('',#948,10.);
#253=VECTOR('',#953,10.);
#254=VECTOR('',#954,10.);
#255=VECTOR('',#957,10.);
#256=VECTOR('',#960,10.);
#257=VECTOR('',#963,10.);
#258=VECTOR('',#966,10.);
#259=VECTOR('',#967,10.);
#260=VECTOR('',#968,10.);
#261=VECTOR('',#969,10.);
#262=VECTOR('',#974,10.);
#263=VECTOR('',#975,10.);
#264=VECTOR('',#978,10.);
#265=VECTOR('',#979,10.);
#266=VECTOR('',#982,10.);
#267=VECTOR('',#983,10.);
#268=VECTOR('',#984,10.);
#269=VECTOR('',#985,10.);
#270=VECTOR('',#986,10.);
#271=VECTOR('',#987,10.);
#272=VECTOR('',#988,10.);
#273=VECTOR('',#993,10.);
#274=VECTOR('',#996,10.);
#275=VECTOR('',#997,10.);
#276=VECTOR('',#998,10.);
#277=VECTOR('',#999,10.);
#278=VECTOR('',#1000,10.);
#279=VECTOR('',#1001,10.);
#280=VECTOR('',#1004,10.);
#281=VECTOR('',#1017,10.);
#282=VECTOR('',#1018,10.);
#283=VECTOR('',#1019,10.);
#284=VECTOR('',#1020,10.);
#285=VECTOR('',#1021,10.);
#286=VECTOR('',#1022,10.);
#287=VECTOR('',#1033,10.);
#288=VECTOR('',#1034,10.);
#289=VECTOR('',#1035,10.);
#290=VECTOR('',#1036,10.);
#291=VECTOR('',#1039,10.);
#292=VECTOR('',#1040,10.);
#293=VECTOR('',#1041,10.);
#294=VECTOR('',#1042,10.);
#295=VECTOR('',#1043,10.);
#296=VECTOR('',#1046,10.);
#297=VECTOR('',#1047,10.);
#298=VECTOR('',#1048,10.);
#299=VECTOR('',#1049,10.);
#300=VECTOR('',#1052,10.);
#301=VECTOR('',#1055,10.);
#302=VECTOR('',#1056,10.);
#303=VECTOR('',#1057,10.);
#304=VECTOR('',#1058,10.);
#305=VECTOR('',#1059,10.);
#306=VECTOR('',#1062,10.);
#307=VECTOR('',#1063,10.);
#308=VECTOR('',#1066,10.);
#309=VECTOR('',#1067,10.);
#310=VECTOR('',#1070,10.);
#311=VECTOR('',#1071,10.);
#312=VECTOR('',#1074,10.);
#313=VECTOR('',#1075,10.);
#314=VECTOR('',#1076,10.);
#315=VECTOR('',#1077,10.);
#316=VECTOR('',#1078,10.);
#317=VECTOR('',#1079,10.);
#318=VECTOR('',#1082,10.);
#319=VECTOR('',#1083,10.);
#320=VECTOR('',#1086,10.);
#321=VECTOR('',#1087,10.);
#322=VECTOR('',#1090,10.);
#323=VECTOR('',#1091,10.);
#324=VECTOR('',#1092,10.);
#325=VECTOR('',#1095,10.);
#326=VECTOR('',#1096,10.);
#327=VECTOR('',#1097,10.);
#328=VECTOR('',#1104,10.);
#329=VECTOR('',#1105,10.);
#330=VECTOR('',#1108,10.);
#331=VECTOR('',#1109,10.);
#332=VECTOR('',#1112,10.);
#333=VECTOR('',#1113,10.);
#334=ELLIPSE('',#836,5.03001388641647,5.);
#335=ELLIPSE('',#839,5.00925419591019,5.);
#336=ELLIPSE('',#842,10.0185083918204,10.);
#337=ELLIPSE('',#843,5.03691476967552,5.);
#338=ELLIPSE('',#853,5.03691476967552,5.);
#339=ELLIPSE('',#856,5.03001388641647,5.);
#340=ELLIPSE('',#857,5.03001388641647,5.);
#341=ELLIPSE('',#858,5.00925419591019,5.);
#342=ELLIPSE('',#860,5.03001388641647,5.);
#343=ELLIPSE('',#863,5.03001388641647,5.);
#344=ELLIPSE('',#866,10.0185083918204,10.);
#345=ELLIPSE('',#868,5.03001388641647,5.);
#346=VERTEX_POINT('',#1122);
#347=VERTEX_POINT('',#1123);
#348=VERTEX_POINT('',#1125);
#349=VERTEX_POINT('',#1127);
#350=VERTEX_POINT('',#1131);
#351=VERTEX_POINT('',#1132);
#352=VERTEX_POINT('',#1134);
#353=VERTEX_POINT('',#1136);
#354=VERTEX_POINT('',#1175);
#355=VERTEX_POINT('',#1176);
#356=VERTEX_POINT('',#1181);
#357=VERTEX_POINT('',#1188);
#358=VERTEX_POINT('',#1190);
#359=VERTEX_POINT('',#1194);
#360=VERTEX_POINT('',#1198);
#361=VERTEX_POINT('',#1202);
#362=VERTEX_POINT('',#1206);
#363=VERTEX_POINT('',#1210);
#364=VERTEX_POINT('',#1212);
#365=VERTEX_POINT('',#1214);
#366=VERTEX_POINT('',#1216);
#367=VERTEX_POINT('',#1218);
#368=VERTEX_POINT('',#1221);
#369=VERTEX_POINT('',#1222);
#370=VERTEX_POINT('',#1224);
#371=VERTEX_POINT('',#1226);
#372=VERTEX_POINT('',#1230);
#373=VERTEX_POINT('',#1231);
#374=VERTEX_POINT('',#1236);
#375=VERTEX_POINT('',#1240);
#376=VERTEX_POINT('',#1242);
#377=VERTEX_POINT('',#1244);
#378=VERTEX_POINT('',#1246);
#379=VERTEX_POINT('',#1248);
#380=VERTEX_POINT('',#1250);
#381=VERTEX_POINT('',#1252);
#382=VERTEX_POINT('',#1258);
#383=VERTEX_POINT('',#1260);
#384=VERTEX_POINT('',#1262);
#385=VERTEX_POINT('',#1264);
#386=VERTEX_POINT('',#1266);
#387=VERTEX_POINT('',#1268);
#388=VERTEX_POINT('',#1270);
#389=VERTEX_POINT('',#1279);
#390=VERTEX_POINT('',#1281);
#391=VERTEX_POINT('',#1283);
#392=VERTEX_POINT('',#1285);
#393=VERTEX_POINT('',#1287);
#394=VERTEX_POINT('',#1331);
#395=VERTEX_POINT('',#1333);
#396=VERTEX_POINT('',#1335);
#397=VERTEX_POINT('',#1339);
#398=VERTEX_POINT('',#1341);
#399=VERTEX_POINT('',#1343);
#400=VERTEX_POINT('',#1345);
#401=VERTEX_POINT('',#1349);
#402=VERTEX_POINT('',#1351);
#403=VERTEX_POINT('',#1353);
#404=VERTEX_POINT('',#1359);
#405=VERTEX_POINT('',#1361);
#406=VERTEX_POINT('',#1363);
#407=VERTEX_POINT('',#1365);
#408=VERTEX_POINT('',#1372);
#409=VERTEX_POINT('',#1376);
#410=VERTEX_POINT('',#1380);
#411=VERTEX_POINT('',#1382);
#412=VERTEX_POINT('',#1384);
#413=VERTEX_POINT('',#1387);
#414=VERTEX_POINT('',#1391);
#415=VERTEX_POINT('',#1395);
#416=VERTEX_POINT('',#1400);
#417=VERTEX_POINT('',#1404);
#418=VERTEX_POINT('',#1411);
#419=VERTEX_POINT('',#1415);
#420=EDGE_CURVE('',#346,#347,#334,.T.);
#421=EDGE_CURVE('',#347,#348,#146,.T.);
#422=EDGE_CURVE('',#348,#349,#136,.T.);
#423=EDGE_CURVE('',#349,#346,#147,.T.);
#424=EDGE_CURVE('',#350,#351,#335,.T.);
#425=EDGE_CURVE('',#351,#352,#148,.T.);
#426=EDGE_CURVE('',#352,#353,#137,.T.);
#427=EDGE_CURVE('',#353,#350,#149,.T.);
#428=EDGE_CURVE('',#354,#355,#138,.T.);
#429=EDGE_CURVE('',#355,#353,#336,.T.);
#430=EDGE_CURVE('',#352,#354,#337,.T.);
#431=EDGE_CURVE('',#356,#348,#139,.T.);
#432=EDGE_CURVE('',#348,#355,#150,.T.);
#433=EDGE_CURVE('',#354,#356,#151,.T.);
#434=EDGE_CURVE('',#356,#349,#140,.T.);
#435=EDGE_CURVE('',#357,#349,#152,.T.);
#436=EDGE_CURVE('',#358,#357,#153,.T.);
#437=EDGE_CURVE('',#358,#346,#154,.T.);
#438=EDGE_CURVE('',#356,#359,#155,.T.);
#439=EDGE_CURVE('',#359,#357,#141,.T.);
#440=EDGE_CURVE('',#360,#354,#156,.T.);
#441=EDGE_CURVE('',#359,#360,#157,.T.);
#442=EDGE_CURVE('',#352,#361,#158,.T.);
#443=EDGE_CURVE('',#360,#361,#338,.T.);
#444=EDGE_CURVE('',#362,#351,#159,.T.);
#445=EDGE_CURVE('',#361,#362,#160,.T.);
#446=EDGE_CURVE('',#350,#363,#161,.T.);
#447=EDGE_CURVE('',#364,#363,#339,.T.);
#448=EDGE_CURVE('',#364,#365,#162,.T.);
#449=EDGE_CURVE('',#366,#365,#340,.T.);
#450=EDGE_CURVE('',#366,#367,#163,.T.);
#451=EDGE_CURVE('',#362,#367,#341,.T.);
#452=EDGE_CURVE('',#368,#369,#164,.T.);
#453=EDGE_CURVE('',#369,#370,#165,.T.);
#454=EDGE_CURVE('',#370,#371,#166,.T.);
#455=EDGE_CURVE('',#371,#368,#167,.T.);
#456=EDGE_CURVE('',#372,#373,#342,.T.);
#457=EDGE_CURVE('',#373,#364,#168,.T.);
#458=EDGE_CURVE('',#363,#372,#169,.T.);
#459=EDGE_CURVE('',#373,#374,#170,.T.);
#460=EDGE_CURVE('',#365,#374,#171,.T.);
#461=EDGE_CURVE('',#375,#372,#172,.T.);
#462=EDGE_CURVE('',#375,#376,#173,.T.);
#463=EDGE_CURVE('',#376,#377,#174,.T.);
#464=EDGE_CURVE('',#377,#378,#175,.T.);
#465=EDGE_CURVE('',#378,#379,#176,.T.);
#466=EDGE_CURVE('',#379,#380,#177,.T.);
#467=EDGE_CURVE('',#381,#380,#178,.T.);
#468=EDGE_CURVE('',#374,#381,#343,.T.);
#469=EDGE_CURVE('',#381,#366,#179,.T.);
#470=EDGE_CURVE('',#380,#382,#180,.T.);
#471=EDGE_CURVE('',#382,#383,#181,.T.);
#472=EDGE_CURVE('',#383,#384,#182,.T.);
#473=EDGE_CURVE('',#384,#385,#183,.T.);
#474=EDGE_CURVE('',#386,#385,#184,.T.);
#475=EDGE_CURVE('',#387,#386,#185,.T.);
#476=EDGE_CURVE('',#388,#387,#344,.T.);
#477=EDGE_CURVE('',#367,#388,#186,.T.);
#478=EDGE_CURVE('',#385,#358,#345,.T.);
#479=EDGE_CURVE('',#357,#386,#142,.T.);
#480=EDGE_CURVE('',#359,#386,#143,.T.);
#481=EDGE_CURVE('',#384,#389,#187,.T.);
#482=EDGE_CURVE('',#389,#390,#188,.T.);
#483=EDGE_CURVE('',#390,#391,#189,.T.);
#484=EDGE_CURVE('',#391,#392,#190,.T.);
#485=EDGE_CURVE('',#392,#393,#191,.T.);
#486=EDGE_CURVE('',#347,#393,#192,.T.);
#487=EDGE_CURVE('',#360,#387,#144,.T.);
#488=EDGE_CURVE('',#361,#388,#145,.T.);
#489=EDGE_CURVE('',#394,#379,#193,.T.);
#490=EDGE_CURVE('',#395,#394,#194,.T.);
#491=EDGE_CURVE('',#396,#395,#195,.T.);
#492=EDGE_CURVE('',#382,#396,#196,.T.);
#493=EDGE_CURVE('',#397,#375,#197,.T.);
#494=EDGE_CURVE('',#398,#397,#198,.T.);
#495=EDGE_CURVE('',#399,#398,#199,.T.);
#496=EDGE_CURVE('',#400,#399,#200,.T.);
#497=EDGE_CURVE('',#376,#400,#201,.T.);
#498=EDGE_CURVE('',#383,#401,#202,.T.);
#499=EDGE_CURVE('',#402,#401,#203,.T.);
#500=EDGE_CURVE('',#403,#402,#204,.T.);
#501=EDGE_CURVE('',#389,#403,#205,.T.);
#502=EDGE_CURVE('',#401,#396,#206,.T.);
#503=EDGE_CURVE('',#393,#404,#207,.T.);
#504=EDGE_CURVE('',#405,#392,#208,.T.);
#505=EDGE_CURVE('',#406,#405,#209,.T.);
#506=EDGE_CURVE('',#407,#406,#210,.T.);
#507=EDGE_CURVE('',#407,#404,#211,.T.);
#508=EDGE_CURVE('',#404,#397,#212,.T.);
#509=EDGE_CURVE('',#398,#407,#213,.T.);
#510=EDGE_CURVE('',#391,#408,#214,.T.);
#511=EDGE_CURVE('',#405,#408,#215,.T.);
#512=EDGE_CURVE('',#409,#400,#216,.T.);
#513=EDGE_CURVE('',#377,#409,#217,.T.);
#514=EDGE_CURVE('',#410,#406,#218,.T.);
#515=EDGE_CURVE('',#411,#410,#219,.T.);
#516=EDGE_CURVE('',#412,#411,#220,.F.);
#517=EDGE_CURVE('',#368,#412,#221,.F.);
#518=EDGE_CURVE('',#371,#413,#222,.F.);
#519=EDGE_CURVE('',#399,#413,#223,.T.);
#520=EDGE_CURVE('',#414,#403,#224,.T.);
#521=EDGE_CURVE('',#390,#414,#225,.T.);
#522=EDGE_CURVE('',#378,#415,#226,.T.);
#523=EDGE_CURVE('',#394,#415,#227,.T.);
#524=EDGE_CURVE('',#408,#414,#228,.T.);
#525=EDGE_CURVE('',#402,#416,#229,.T.);
#526=EDGE_CURVE('',#416,#410,#230,.F.);
#527=EDGE_CURVE('',#413,#417,#231,.F.);
#528=EDGE_CURVE('',#417,#395,#232,.T.);
#529=EDGE_CURVE('',#415,#409,#233,.T.);
#530=EDGE_CURVE('',#418,#369,#234,.F.);
#531=EDGE_CURVE('',#418,#412,#235,.F.);
#532=EDGE_CURVE('',#419,#418,#236,.F.);
#533=EDGE_CURVE('',#411,#419,#237,.F.);
#534=EDGE_CURVE('',#370,#417,#238,.T.);
#535=EDGE_CURVE('',#419,#416,#239,.F.);
#536=ORIENTED_EDGE('',*,*,#420,.T.);
#537=ORIENTED_EDGE('',*,*,#421,.T.);
#538=ORIENTED_EDGE('',*,*,#422,.T.);
#539=ORIENTED_EDGE('',*,*,#423,.T.);
#540=ORIENTED_EDGE('',*,*,#424,.T.);
#541=ORIENTED_EDGE('',*,*,#425,.T.);
#542=ORIENTED_EDGE('',*,*,#426,.T.);
#543=ORIENTED_EDGE('',*,*,#427,.T.);
#544=ORIENTED_EDGE('',*,*,#428,.T.);
#545=ORIENTED_EDGE('',*,*,#429,.T.);
#546=ORIENTED_EDGE('',*,*,#426,.F.);
#547=ORIENTED_EDGE('',*,*,#430,.T.);
#548=ORIENTED_EDGE('',*,*,#431,.T.);
#549=ORIENTED_EDGE('',*,*,#432,.T.);
#550=ORIENTED_EDGE('',*,*,#428,.F.);
#551=ORIENTED_EDGE('',*,*,#433,.T.);
#552=ORIENTED_EDGE('',*,*,#431,.F.);
#553=ORIENTED_EDGE('',*,*,#434,.T.);
#554=ORIENTED_EDGE('',*,*,#422,.F.);
#555=ORIENTED_EDGE('',*,*,#423,.F.);
#556=ORIENTED_EDGE('',*,*,#435,.F.);
#557=ORIENTED_EDGE('',*,*,#436,.F.);
#558=ORIENTED_EDGE('',*,*,#437,.T.);
#559=ORIENTED_EDGE('',*,*,#434,.F.);
#560=ORIENTED_EDGE('',*,*,#438,.T.);
#561=ORIENTED_EDGE('',*,*,#439,.T.);
#562=ORIENTED_EDGE('',*,*,#435,.T.);
#563=ORIENTED_EDGE('',*,*,#433,.F.);
#564=ORIENTED_EDGE('',*,*,#440,.F.);
#565=ORIENTED_EDGE('',*,*,#441,.F.);
#566=ORIENTED_EDGE('',*,*,#438,.F.);
#567=ORIENTED_EDGE('',*,*,#430,.F.);
#568=ORIENTED_EDGE('',*,*,#442,.T.);
#569=ORIENTED_EDGE('',*,*,#443,.F.);
#570=ORIENTED_EDGE('',*,*,#440,.T.);
#571=ORIENTED_EDGE('',*,*,#425,.F.);
#572=ORIENTED_EDGE('',*,*,#444,.F.);
#573=ORIENTED_EDGE('',*,*,#445,.F.);
#574=ORIENTED_EDGE('',*,*,#442,.F.);
#575=ORIENTED_EDGE('',*,*,#424,.F.);
#576=ORIENTED_EDGE('',*,*,#446,.T.);
#577=ORIENTED_EDGE('',*,*,#447,.F.);
#578=ORIENTED_EDGE('',*,*,#448,.T.);
#579=ORIENTED_EDGE('',*,*,#449,.F.);
#580=ORIENTED_EDGE('',*,*,#450,.T.);
#581=ORIENTED_EDGE('',*,*,#451,.F.);
#582=ORIENTED_EDGE('',*,*,#444,.T.);
#583=ORIENTED_EDGE('',*,*,#452,.T.);
#584=ORIENTED_EDGE('',*,*,#453,.T.);
#585=ORIENTED_EDGE('',*,*,#454,.T.);
#586=ORIENTED_EDGE('',*,*,#455,.T.);
#587=ORIENTED_EDGE('',*,*,#456,.T.);
#588=ORIENTED_EDGE('',*,*,#457,.T.);
#589=ORIENTED_EDGE('',*,*,#447,.T.);
#590=ORIENTED_EDGE('',*,*,#458,.T.);
#591=ORIENTED_EDGE('',*,*,#457,.F.);
#592=ORIENTED_EDGE('',*,*,#459,.T.);
#593=ORIENTED_EDGE('',*,*,#460,.F.);
#594=ORIENTED_EDGE('',*,*,#448,.F.);
#595=ORIENTED_EDGE('',*,*,#456,.F.);
#596=ORIENTED_EDGE('',*,*,#461,.F.);
#597=ORIENTED_EDGE('',*,*,#462,.T.);
#598=ORIENTED_EDGE('',*,*,#463,.T.);
#599=ORIENTED_EDGE('',*,*,#464,.T.);
#600=ORIENTED_EDGE('',*,*,#465,.T.);
#601=ORIENTED_EDGE('',*,*,#466,.T.);
#602=ORIENTED_EDGE('',*,*,#467,.F.);
#603=ORIENTED_EDGE('',*,*,#468,.F.);
#604=ORIENTED_EDGE('',*,*,#459,.F.);
#605=ORIENTED_EDGE('',*,*,#468,.T.);
#606=ORIENTED_EDGE('',*,*,#469,.T.);
#607=ORIENTED_EDGE('',*,*,#449,.T.);
#608=ORIENTED_EDGE('',*,*,#460,.T.);
#609=ORIENTED_EDGE('',*,*,#469,.F.);
#610=ORIENTED_EDGE('',*,*,#467,.T.);
#611=ORIENTED_EDGE('',*,*,#470,.T.);
#612=ORIENTED_EDGE('',*,*,#471,.T.);
#613=ORIENTED_EDGE('',*,*,#472,.T.);
#614=ORIENTED_EDGE('',*,*,#473,.T.);
#615=ORIENTED_EDGE('',*,*,#474,.F.);
#616=ORIENTED_EDGE('',*,*,#475,.F.);
#617=ORIENTED_EDGE('',*,*,#476,.F.);
#618=ORIENTED_EDGE('',*,*,#477,.F.);
#619=ORIENTED_EDGE('',*,*,#450,.F.);
#620=ORIENTED_EDGE('',*,*,#478,.T.);
#621=ORIENTED_EDGE('',*,*,#436,.T.);
#622=ORIENTED_EDGE('',*,*,#479,.T.);
#623=ORIENTED_EDGE('',*,*,#474,.T.);
#624=ORIENTED_EDGE('',*,*,#439,.F.);
#625=ORIENTED_EDGE('',*,*,#480,.T.);
#626=ORIENTED_EDGE('',*,*,#479,.F.);
#627=ORIENTED_EDGE('',*,*,#420,.F.);
#628=ORIENTED_EDGE('',*,*,#437,.F.);
#629=ORIENTED_EDGE('',*,*,#478,.F.);
#630=ORIENTED_EDGE('',*,*,#473,.F.);
#631=ORIENTED_EDGE('',*,*,#481,.T.);
#632=ORIENTED_EDGE('',*,*,#482,.T.);
#633=ORIENTED_EDGE('',*,*,#483,.T.);
#634=ORIENTED_EDGE('',*,*,#484,.T.);
#635=ORIENTED_EDGE('',*,*,#485,.T.);
#636=ORIENTED_EDGE('',*,*,#486,.F.);
#637=ORIENTED_EDGE('',*,*,#480,.F.);
#638=ORIENTED_EDGE('',*,*,#441,.T.);
#639=ORIENTED_EDGE('',*,*,#487,.T.);
#640=ORIENTED_EDGE('',*,*,#475,.T.);
#641=ORIENTED_EDGE('',*,*,#488,.T.);
#642=ORIENTED_EDGE('',*,*,#476,.T.);
#643=ORIENTED_EDGE('',*,*,#487,.F.);
#644=ORIENTED_EDGE('',*,*,#443,.T.);
#645=ORIENTED_EDGE('',*,*,#451,.T.);
#646=ORIENTED_EDGE('',*,*,#477,.T.);
#647=ORIENTED_EDGE('',*,*,#488,.F.);
#648=ORIENTED_EDGE('',*,*,#445,.T.);
#649=ORIENTED_EDGE('',*,*,#470,.F.);
#650=ORIENTED_EDGE('',*,*,#466,.F.);
#651=ORIENTED_EDGE('',*,*,#489,.F.);
#652=ORIENTED_EDGE('',*,*,#490,.F.);
#653=ORIENTED_EDGE('',*,*,#491,.F.);
#654=ORIENTED_EDGE('',*,*,#492,.F.);
#655=ORIENTED_EDGE('',*,*,#493,.F.);
#656=ORIENTED_EDGE('',*,*,#494,.F.);
#657=ORIENTED_EDGE('',*,*,#495,.F.);
#658=ORIENTED_EDGE('',*,*,#496,.F.);
#659=ORIENTED_EDGE('',*,*,#497,.F.);
#660=ORIENTED_EDGE('',*,*,#462,.F.);
#661=ORIENTED_EDGE('',*,*,#472,.F.);
#662=ORIENTED_EDGE('',*,*,#498,.T.);
#663=ORIENTED_EDGE('',*,*,#499,.F.);
#664=ORIENTED_EDGE('',*,*,#500,.F.);
#665=ORIENTED_EDGE('',*,*,#501,.F.);
#666=ORIENTED_EDGE('',*,*,#481,.F.);
#667=ORIENTED_EDGE('',*,*,#471,.F.);
#668=ORIENTED_EDGE('',*,*,#492,.T.);
#669=ORIENTED_EDGE('',*,*,#502,.F.);
#670=ORIENTED_EDGE('',*,*,#498,.F.);
#671=ORIENTED_EDGE('',*,*,#503,.F.);
#672=ORIENTED_EDGE('',*,*,#485,.F.);
#673=ORIENTED_EDGE('',*,*,#504,.F.);
#674=ORIENTED_EDGE('',*,*,#505,.F.);
#675=ORIENTED_EDGE('',*,*,#506,.F.);
#676=ORIENTED_EDGE('',*,*,#507,.T.);
#677=ORIENTED_EDGE('',*,*,#508,.F.);
#678=ORIENTED_EDGE('',*,*,#507,.F.);
#679=ORIENTED_EDGE('',*,*,#509,.F.);
#680=ORIENTED_EDGE('',*,*,#494,.T.);
#681=ORIENTED_EDGE('',*,*,#504,.T.);
#682=ORIENTED_EDGE('',*,*,#484,.F.);
#683=ORIENTED_EDGE('',*,*,#510,.T.);
#684=ORIENTED_EDGE('',*,*,#511,.F.);
#685=ORIENTED_EDGE('',*,*,#497,.T.);
#686=ORIENTED_EDGE('',*,*,#512,.F.);
#687=ORIENTED_EDGE('',*,*,#513,.F.);
#688=ORIENTED_EDGE('',*,*,#463,.F.);
#689=ORIENTED_EDGE('',*,*,#495,.T.);
#690=ORIENTED_EDGE('',*,*,#509,.T.);
#691=ORIENTED_EDGE('',*,*,#506,.T.);
#692=ORIENTED_EDGE('',*,*,#514,.F.);
#693=ORIENTED_EDGE('',*,*,#515,.F.);
#694=ORIENTED_EDGE('',*,*,#516,.F.);
#695=ORIENTED_EDGE('',*,*,#517,.F.);
#696=ORIENTED_EDGE('',*,*,#455,.F.);
#697=ORIENTED_EDGE('',*,*,#518,.T.);
#698=ORIENTED_EDGE('',*,*,#519,.F.);
#699=ORIENTED_EDGE('',*,*,#501,.T.);
#700=ORIENTED_EDGE('',*,*,#520,.F.);
#701=ORIENTED_EDGE('',*,*,#521,.F.);
#702=ORIENTED_EDGE('',*,*,#482,.F.);
#703=ORIENTED_EDGE('',*,*,#489,.T.);
#704=ORIENTED_EDGE('',*,*,#465,.F.);
#705=ORIENTED_EDGE('',*,*,#522,.T.);
#706=ORIENTED_EDGE('',*,*,#523,.F.);
#707=ORIENTED_EDGE('',*,*,#505,.T.);
#708=ORIENTED_EDGE('',*,*,#511,.T.);
#709=ORIENTED_EDGE('',*,*,#524,.T.);
#710=ORIENTED_EDGE('',*,*,#520,.T.);
#711=ORIENTED_EDGE('',*,*,#500,.T.);
#712=ORIENTED_EDGE('',*,*,#525,.T.);
#713=ORIENTED_EDGE('',*,*,#526,.T.);
#714=ORIENTED_EDGE('',*,*,#514,.T.);
#715=ORIENTED_EDGE('',*,*,#496,.T.);
#716=ORIENTED_EDGE('',*,*,#519,.T.);
#717=ORIENTED_EDGE('',*,*,#527,.T.);
#718=ORIENTED_EDGE('',*,*,#528,.T.);
#719=ORIENTED_EDGE('',*,*,#490,.T.);
#720=ORIENTED_EDGE('',*,*,#523,.T.);
#721=ORIENTED_EDGE('',*,*,#529,.T.);
#722=ORIENTED_EDGE('',*,*,#512,.T.);
#723=ORIENTED_EDGE('',*,*,#524,.F.);
#724=ORIENTED_EDGE('',*,*,#510,.F.);
#725=ORIENTED_EDGE('',*,*,#483,.F.);
#726=ORIENTED_EDGE('',*,*,#521,.T.);
#727=ORIENTED_EDGE('',*,*,#529,.F.);
#728=ORIENTED_EDGE('',*,*,#522,.F.);
#729=ORIENTED_EDGE('',*,*,#464,.F.);
#730=ORIENTED_EDGE('',*,*,#513,.T.);
#731=ORIENTED_EDGE('',*,*,#530,.T.);
#732=ORIENTED_EDGE('',*,*,#452,.F.);
#733=ORIENTED_EDGE('',*,*,#517,.T.);
#734=ORIENTED_EDGE('',*,*,#531,.F.);
#735=ORIENTED_EDGE('',*,*,#532,.T.);
#736=ORIENTED_EDGE('',*,*,#531,.T.);
#737=ORIENTED_EDGE('',*,*,#516,.T.);
#738=ORIENTED_EDGE('',*,*,#533,.T.);
#739=ORIENTED_EDGE('',*,*,#491,.T.);
#740=ORIENTED_EDGE('',*,*,#528,.F.);
#741=ORIENTED_EDGE('',*,*,#534,.F.);
#742=ORIENTED_EDGE('',*,*,#453,.F.);
#743=ORIENTED_EDGE('',*,*,#530,.F.);
#744=ORIENTED_EDGE('',*,*,#532,.F.);
#745=ORIENTED_EDGE('',*,*,#535,.T.);
#746=ORIENTED_EDGE('',*,*,#525,.F.);
#747=ORIENTED_EDGE('',*,*,#499,.T.);
#748=ORIENTED_EDGE('',*,*,#502,.T.);
#749=ORIENTED_EDGE('',*,*,#454,.F.);
#750=ORIENTED_EDGE('',*,*,#534,.T.);
#751=ORIENTED_EDGE('',*,*,#527,.F.);
#752=ORIENTED_EDGE('',*,*,#518,.F.);
#753=ORIENTED_EDGE('',*,*,#533,.F.);
#754=ORIENTED_EDGE('',*,*,#515,.T.);
#755=ORIENTED_EDGE('',*,*,#526,.F.);
#756=ORIENTED_EDGE('',*,*,#535,.F.);
#757=ORIENTED_EDGE('',*,*,#421,.F.);
#758=ORIENTED_EDGE('',*,*,#486,.T.);
#759=ORIENTED_EDGE('',*,*,#503,.T.);
#760=ORIENTED_EDGE('',*,*,#508,.T.);
#761=ORIENTED_EDGE('',*,*,#493,.T.);
#762=ORIENTED_EDGE('',*,*,#461,.T.);
#763=ORIENTED_EDGE('',*,*,#458,.F.);
#764=ORIENTED_EDGE('',*,*,#446,.F.);
#765=ORIENTED_EDGE('',*,*,#427,.F.);
#766=ORIENTED_EDGE('',*,*,#429,.F.);
#767=ORIENTED_EDGE('',*,*,#432,.F.);
#768=CYLINDRICAL_SURFACE('',#835,5.);
#769=CYLINDRICAL_SURFACE('',#838,5.);
#770=CYLINDRICAL_SURFACE('',#844,5.);
#771=CYLINDRICAL_SURFACE('',#849,5.);
#772=CYLINDRICAL_SURFACE('',#852,5.);
#773=CYLINDRICAL_SURFACE('',#859,5.);
#774=CYLINDRICAL_SURFACE('',#864,5.);
#775=CYLINDRICAL_SURFACE('',#867,5.);
#776=CYLINDRICAL_SURFACE('',#873,5.);
#777=CYLINDRICAL_SURFACE('',#876,5.);
#778=ADVANCED_FACE('',(#49),#768,.T.);
#779=ADVANCED_FACE('',(#50),#769,.T.);
#780=ADVANCED_FACE('',(#51),#47,.F.);
#781=ADVANCED_FACE('',(#52),#770,.T.);
#782=ADVANCED_FACE('',(#53),#45,.T.);
#783=ADVANCED_FACE('',(#54),#16,.F.);
#784=ADVANCED_FACE('',(#55),#771,.T.);
#785=ADVANCED_FACE('',(#56),#17,.F.);
#786=ADVANCED_FACE('',(#57),#772,.F.);
#787=ADVANCED_FACE('',(#58),#18,.F.);
#788=ADVANCED_FACE('',(#59,#15),#19,.T.);
#789=ADVANCED_FACE('',(#60),#773,.T.);
#790=ADVANCED_FACE('',(#61),#20,.F.);
#791=ADVANCED_FACE('',(#62),#21,.F.);
#792=ADVANCED_FACE('',(#63),#774,.T.);
#793=ADVANCED_FACE('',(#64),#22,.F.);
#794=ADVANCED_FACE('',(#65),#775,.T.);
#795=ADVANCED_FACE('',(#66),#46,.T.);
#796=ADVANCED_FACE('',(#67),#23,.F.);
#797=ADVANCED_FACE('',(#68),#776,.T.);
#798=ADVANCED_FACE('',(#69),#48,.F.);
#799=ADVANCED_FACE('',(#70),#777,.T.);
#800=ADVANCED_FACE('',(#71),#24,.F.);
#801=ADVANCED_FACE('',(#72),#25,.F.);
#802=ADVANCED_FACE('',(#73),#26,.F.);
#803=ADVANCED_FACE('',(#74),#27,.F.);
#804=ADVANCED_FACE('',(#75),#28,.F.);
#805=ADVANCED_FACE('',(#76),#29,.F.);
#806=ADVANCED_FACE('',(#77),#30,.F.);
#807=ADVANCED_FACE('',(#78),#31,.F.);
#808=ADVANCED_FACE('',(#79),#32,.T.);
#809=ADVANCED_FACE('',(#80),#33,.F.);
#810=ADVANCED_FACE('',(#81),#34,.F.);
#811=ADVANCED_FACE('',(#82),#35,.T.);
#812=ADVANCED_FACE('',(#83),#36,.T.);
#813=ADVANCED_FACE('',(#84),#37,.F.);
#814=ADVANCED_FACE('',(#85),#38,.F.);
#815=ADVANCED_FACE('',(#86),#39,.T.);
#816=ADVANCED_FACE('',(#87),#40,.T.);
#817=ADVANCED_FACE('',(#88),#41,.T.);
#818=ADVANCED_FACE('',(#89),#42,.T.);
#819=ADVANCED_FACE('',(#90),#43,.T.);
#820=ADVANCED_FACE('',(#91),#44,.F.);
#821=CLOSED_SHELL('',(#778,#779,#780,#781,#782,#783,#784,#785,#786,#787,
#788,#789,#790,#791,#792,#793,#794,#795,#796,#797,#798,#799,#800,#801,#802,
#803,#804,#805,#806,#807,#808,#809,#810,#811,#812,#813,#814,#815,#816,#817,
#818,#819,#820));
#822=DERIVED_UNIT_ELEMENT(#824,1.);
#823=DERIVED_UNIT_ELEMENT(#1429,-3.);
#824=(
MASS_UNIT()
NAMED_UNIT(*)
SI_UNIT(.KILO.,.GRAM.)
);
#825=DERIVED_UNIT((#822,#823));
#826=MEASURE_REPRESENTATION_ITEM('density measure',
POSITIVE_RATIO_MEASURE(7850.),#825);
#827=PROPERTY_DEFINITION_REPRESENTATION(#832,#829);
#828=PROPERTY_DEFINITION_REPRESENTATION(#833,#830);
#829=REPRESENTATION('material name',(#831),#1426);
#830=REPRESENTATION('density',(#826),#1426);
#831=DESCRIPTIVE_REPRESENTATION_ITEM('Steel','Steel');
#832=PROPERTY_DEFINITION('material property','material name',#1436);
#833=PROPERTY_DEFINITION('material property','density of part',#1436);
#834=AXIS2_PLACEMENT_3D('',#1120,#898,#899);
#835=AXIS2_PLACEMENT_3D('',#1121,#900,#901);
#836=AXIS2_PLACEMENT_3D('',#1124,#902,#903);
#837=AXIS2_PLACEMENT_3D('',#1128,#905,#906);
#838=AXIS2_PLACEMENT_3D('',#1130,#908,#909);
#839=AXIS2_PLACEMENT_3D('',#1133,#910,#911);
#840=AXIS2_PLACEMENT_3D('',#1137,#913,#914);
#841=AXIS2_PLACEMENT_3D('',#1177,#916,#917);
#842=AXIS2_PLACEMENT_3D('',#1178,#918,#919);
#843=AXIS2_PLACEMENT_3D('',#1179,#920,#921);
#844=AXIS2_PLACEMENT_3D('',#1180,#922,#923);
#845=AXIS2_PLACEMENT_3D('',#1182,#924,#925);
#846=AXIS2_PLACEMENT_3D('',#1185,#928,#929);
#847=AXIS2_PLACEMENT_3D('',#1186,#930,#931);
#848=AXIS2_PLACEMENT_3D('',#1187,#932,#933);
#849=AXIS2_PLACEMENT_3D('',#1193,#937,#938);
#850=AXIS2_PLACEMENT_3D('',#1196,#940,#941);
#851=AXIS2_PLACEMENT_3D('',#1197,#942,#943);
#852=AXIS2_PLACEMENT_3D('',#1201,#946,#947);
#853=AXIS2_PLACEMENT_3D('',#1204,#949,#950);
#854=AXIS2_PLACEMENT_3D('',#1205,#951,#952);
#855=AXIS2_PLACEMENT_3D('',#1209,#955,#956);
#856=AXIS2_PLACEMENT_3D('',#1213,#958,#959);
#857=AXIS2_PLACEMENT_3D('',#1217,#961,#962);
#858=AXIS2_PLACEMENT_3D('',#1220,#964,#965);
#859=AXIS2_PLACEMENT_3D('',#1229,#970,#971);
#860=AXIS2_PLACEMENT_3D('',#1232,#972,#973);
#861=AXIS2_PLACEMENT_3D('',#1235,#976,#977);
#862=AXIS2_PLACEMENT_3D('',#1239,#980,#981);
#863=AXIS2_PLACEMENT_3D('',#1254,#989,#990);
#864=AXIS2_PLACEMENT_3D('',#1255,#991,#992);
#865=AXIS2_PLACEMENT_3D('',#1257,#994,#995);
#866=AXIS2_PLACEMENT_3D('',#1271,#1002,#1003);
#867=AXIS2_PLACEMENT_3D('',#1273,#1005,#1006);
#868=AXIS2_PLACEMENT_3D('',#1274,#1007,#1008);
#869=AXIS2_PLACEMENT_3D('',#1275,#1009,#1010);
#870=AXIS2_PLACEMENT_3D('',#1276,#1011,#1012);
#871=AXIS2_PLACEMENT_3D('',#1277,#1013,#1014);
#872=AXIS2_PLACEMENT_3D('',#1278,#1015,#1016);
#873=AXIS2_PLACEMENT_3D('',#1290,#1023,#1024);
#874=AXIS2_PLACEMENT_3D('',#1291,#1025,#1026);
#875=AXIS2_PLACEMENT_3D('',#1328,#1027,#1028);
#876=AXIS2_PLACEMENT_3D('',#1329,#1029,#1030);
#877=AXIS2_PLACEMENT_3D('',#1330,#1031,#1032);
#878=AXIS2_PLACEMENT_3D('',#1338,#1037,#1038);
#879=AXIS2_PLACEMENT_3D('',#1348,#1044,#1045);
#880=AXIS2_PLACEMENT_3D('',#1356,#1050,#1051);
#881=AXIS2_PLACEMENT_3D('',#1358,#1053,#1054);
#882=AXIS2_PLACEMENT_3D('',#1368,#1060,#1061);
#883=AXIS2_PLACEMENT_3D('',#1371,#1064,#1065);
#884=AXIS2_PLACEMENT_3D('',#1375,#1068,#1069);
#885=AXIS2_PLACEMENT_3D('',#1379,#1072,#1073);
#886=AXIS2_PLACEMENT_3D('',#1390,#1080,#1081);
#887=AXIS2_PLACEMENT_3D('',#1394,#1084,#1085);
#888=AXIS2_PLACEMENT_3D('',#1398,#1088,#1089);
#889=AXIS2_PLACEMENT_3D('',#1403,#1093,#1094);
#890=AXIS2_PLACEMENT_3D('',#1408,#1098,#1099);
#891=AXIS2_PLACEMENT_3D('',#1409,#1100,#1101);
#892=AXIS2_PLACEMENT_3D('',#1410,#1102,#1103);
#893=AXIS2_PLACEMENT_3D('',#1414,#1106,#1107);
#894=AXIS2_PLACEMENT_3D('',#1418,#1110,#1111);
#895=AXIS2_PLACEMENT_3D('',#1421,#1114,#1115);
#896=AXIS2_PLACEMENT_3D('',#1422,#1116,#1117);
#897=AXIS2_PLACEMENT_3D('',#1423,#1118,#1119);
#898=DIRECTION('axis',(0.,0.,1.));
#899=DIRECTION('refdir',(1.,0.,0.));
#900=DIRECTION('center_axis',(0.0907595385299571,0.0605063590199713,-0.994033041042387));
#901=DIRECTION('ref_axis',(-0.702240629343379,-0.703858933359755,-0.106961209927161));
#902=DIRECTION('center_axis',(0.,0.,1.));
#903=DIRECTION('ref_axis',(-0.832050294337848,-0.554700196225223,0.));
#904=DIRECTION('',(-0.0907595385299571,-0.0605063590199713,0.994033041042387));
#905=DIRECTION('center_axis',(0.0907595385299546,0.0605063590199706,-0.994033041042387));
#906=DIRECTION('ref_axis',(0.,-0.998152580095108,-0.0607571135710058));
#907=DIRECTION('',(0.0907595385299571,0.0605063590199713,-0.994033041042387));
#908=DIRECTION('center_axis',(0.,0.0607571135710065,-0.998152580095107));
#909=DIRECTION('ref_axis',(-0.707106781186547,-0.7058004580441,-0.0429617670113805));
#910=DIRECTION('center_axis',(0.,0.,-1.));
#911=DIRECTION('ref_axis',(8.31128982382945E-16,-1.,0.));
#912=DIRECTION('',(0.,0.0607571135710065,-0.998152580095107));
#913=DIRECTION('center_axis',(-1.34136990548064E-15,-0.0607571135710076,
0.998152580095107));
#914=DIRECTION('ref_axis',(-1.,-7.10542735760099E-15,-1.77635683940025E-15));
#915=DIRECTION('',(0.,-0.0607571135710065,0.998152580095107));
#916=DIRECTION('center_axis',(1.,0.,0.));
#917=DIRECTION('ref_axis',(0.,0.,1.));
#918=DIRECTION('center_axis',(0.,-0.998152580095107,-0.0607571135710065));
#919=DIRECTION('ref_axis',(0.,0.0607571135710065,-0.998152580095107));
#920=DIRECTION('center_axis',(0.,0.992671154592933,0.120846923167836));
#921=DIRECTION('ref_axis',(0.,0.120846923167836,-0.992671154592933));
#922=DIRECTION('center_axis',(-1.,0.,0.));
#923=DIRECTION('ref_axis',(0.,-0.728270936386658,0.685289313512549));
#924=DIRECTION('center_axis',(1.,0.,0.));
#925=DIRECTION('ref_axis',(0.,-3.55271367880049E-15,1.));
#926=DIRECTION('',(1.,0.,0.));
#927=DIRECTION('',(-1.,0.,0.));
#928=DIRECTION('center_axis',(-0.796074009681587,0.461150875514028,-0.391926065887593));
#929=DIRECTION('ref_axis',(-0.605199282145543,-0.606593955692006,0.515536227445215));
#930=DIRECTION('center_axis',(0.,-1.,0.));
#931=DIRECTION('ref_axis',(-0.738554714397129,0.,0.674193543310654));
#932=DIRECTION('center_axis',(0.995857639656377,0.,0.0909261323164519));
#933=DIRECTION('ref_axis',(0.0909261323164519,0.,-0.995857639656377));
#934=DIRECTION('',(0.,-1.,0.));
#935=DIRECTION('',(-0.0907595385299571,0.0605063590199713,0.994033041042387));
#936=DIRECTION('',(1.03880516923991E-16,-1.,0.));
#937=DIRECTION('center_axis',(0.,1.,0.));
#938=DIRECTION('ref_axis',(-0.73855471439713,0.,0.674193543310654));
#939=DIRECTION('',(0.,1.,0.));
#940=DIRECTION('center_axis',(0.,-1.,0.));
#941=DIRECTION('ref_axis',(0.,0.,1.));
#942=DIRECTION('center_axis',(0.,0.,-1.));
#943=DIRECTION('ref_axis',(1.,0.,0.));
#944=DIRECTION('',(0.,-1.,0.));
#945=DIRECTION('',(1.,0.,0.));
#946=DIRECTION('center_axis',(0.,-1.,0.));
#947=DIRECTION('ref_axis',(0.707106781186547,0.,-0.707106781186547));
#948=DIRECTION('',(0.,1.,0.));
#949=DIRECTION('center_axis',(0.,-0.992671154592933,0.120846923167836));
#950=DIRECTION('ref_axis',(0.,-0.120846923167836,-0.992671154592933));
#951=DIRECTION('center_axis',(1.,0.,0.));
#952=DIRECTION('ref_axis',(0.,0.,1.));
#953=DIRECTION('',(0.,-1.,0.));
#954=DIRECTION('',(0.,0.0607571135710065,0.998152580095107));
#955=DIRECTION('center_axis',(0.,0.,1.));
#956=DIRECTION('ref_axis',(1.,0.,0.));
#957=DIRECTION('',(1.,0.,0.));
#958=DIRECTION('center_axis',(0.,0.,-1.));
#959=DIRECTION('ref_axis',(0.832050294337841,-0.554700196225233,0.));
#960=DIRECTION('',(0.,1.,0.));
#961=DIRECTION('center_axis',(0.,0.,-1.));
#962=DIRECTION('ref_axis',(0.832050294337848,0.554700196225223,0.));
#963=DIRECTION('',(-1.,0.,0.));
#964=DIRECTION('center_axis',(0.,0.,-1.));
#965=DIRECTION('ref_axis',(8.31128982382945E-16,1.,0.));
#966=DIRECTION('',(0.,1.,0.));
#967=DIRECTION('',(1.,0.,0.));
#968=DIRECTION('',(0.,-1.,0.));
#969=DIRECTION('',(-1.,0.,0.));
#970=DIRECTION('center_axis',(-0.0907595385299568,0.0605063590199713,-0.994033041042387));
#971=DIRECTION('ref_axis',(0.702240629343377,-0.703858933359758,-0.10696120992716));
#972=DIRECTION('center_axis',(0.,0.,1.));
#973=DIRECTION('ref_axis',(0.832050294337841,-0.554700196225233,0.));
#974=DIRECTION('',(0.0907595385299568,-0.0605063590199713,0.994033041042387));
#975=DIRECTION('',(-0.0907595385299568,0.0605063590199713,-0.994033041042387));
#976=DIRECTION('center_axis',(-0.995857639656377,0.,0.0909261323164516));
#977=DIRECTION('ref_axis',(0.0909261323164516,0.,0.995857639656377));
#978=DIRECTION('',(0.,1.,0.));
#979=DIRECTION('',(-0.0907595385299568,-0.0605063590199713,-0.994033041042387));
#980=DIRECTION('center_axis',(0.,0.,1.));
#981=DIRECTION('ref_axis',(1.,0.,0.));
#982=DIRECTION('',(1.,0.,0.));
#983=DIRECTION('',(0.,1.,0.));
#984=DIRECTION('',(1.,8.37904169528419E-17,0.));
#985=DIRECTION('',(0.,1.,0.));
#986=DIRECTION('',(-1.,0.,0.));
#987=DIRECTION('',(0.,1.,0.));
#988=DIRECTION('',(-1.,0.,0.));
#989=DIRECTION('center_axis',(0.,0.,1.));
#990=DIRECTION('ref_axis',(0.832050294337848,0.554700196225223,0.));
#991=DIRECTION('center_axis',(-0.0907595385299568,-0.0605063590199713,-0.994033041042387));
#992=DIRECTION('ref_axis',(0.702240629343379,0.703858933359755,-0.106961209927161));
#993=DIRECTION('',(0.0907595385299568,0.0605063590199713,0.994033041042387));
#994=DIRECTION('center_axis',(0.,-0.998152580095107,0.0607571135710065));
#995=DIRECTION('ref_axis',(0.,-0.0607571135710065,-0.998152580095107));
#996=DIRECTION('',(0.,0.0607571135710065,0.998152580095107));
#997=DIRECTION('',(-1.,0.,0.));
#998=DIRECTION('',(0.,-0.0607571135710065,-0.998152580095107));
#999=DIRECTION('',(-1.,0.,0.));
#1000=DIRECTION('',(0.0907595385299571,-0.0605063590199713,-0.994033041042387));
#1001=DIRECTION('',(-1.,0.,0.));
#1002=DIRECTION('center_axis',(0.,0.998152580095107,-0.0607571135710065));
#1003=DIRECTION('ref_axis',(0.,-0.0607571135710065,-0.998152580095107));
#1004=DIRECTION('',(0.,-0.0607571135710065,-0.998152580095107));
#1005=DIRECTION('center_axis',(0.0907595385299571,-0.0605063590199713,-0.994033041042387));
#1006=DIRECTION('ref_axis',(-0.702240629343374,0.70385893335976,-0.106961209927161));
#1007=DIRECTION('center_axis',(0.,0.,1.));
#1008=DIRECTION('ref_axis',(-0.832050294337846,0.554700196225226,0.));
#1009=DIRECTION('center_axis',(0.0907595385299562,-0.0605063590199713,-0.994033041042387));
#1010=DIRECTION('ref_axis',(-0.995857639656377,0.,-0.090926132316451));
#1011=DIRECTION('center_axis',(-0.796074009681591,-0.461150875514028,-0.391926065887585));
#1012=DIRECTION('ref_axis',(-0.605199282145537,0.606593955692014,0.515536227445212));
#1013=DIRECTION('center_axis',(-1.,0.,0.));
#1014=DIRECTION('ref_axis',(0.,0.728270936386661,0.685289313512545));
#1015=DIRECTION('center_axis',(0.,0.,1.));
#1016=DIRECTION('ref_axis',(1.,0.,0.));
#1017=DIRECTION('',(0.,-1.,0.));
#1018=DIRECTION('',(-1.,0.,0.));
#1019=DIRECTION('',(0.,-1.,0.));
#1020=DIRECTION('',(1.,8.37904169528419E-17,0.));
#1021=DIRECTION('',(0.,-1.,0.));
#1022=DIRECTION('',(1.,0.,0.));
#1023=DIRECTION('center_axis',(1.,0.,0.));
#1024=DIRECTION('ref_axis',(0.,0.728270936386661,0.685289313512545));
#1025=DIRECTION('center_axis',(-1.,0.,0.));
#1026=DIRECTION('ref_axis',(0.,0.,1.));
#1027=DIRECTION('center_axis',(0.,-0.0607571135710056,-0.998152580095107));
#1028=DIRECTION('ref_axis',(-1.,0.,0.));
#1029=DIRECTION('center_axis',(0.,0.0607571135710065,0.998152580095107));
#1030=DIRECTION('ref_axis',(-0.707106781186547,0.7058004580441,-0.0429617670113805));
#1031=DIRECTION('center_axis',(1.,0.,0.));
#1032=DIRECTION('ref_axis',(0.,0.,1.));
#1033=DIRECTION('',(0.,0.,-1.));
#1034=DIRECTION('',(0.,-1.,0.));
#1035=DIRECTION('',(0.,-0.0607571135710065,-0.998152580095107));
#1036=DIRECTION('',(0.,-1.,0.));
#1037=DIRECTION('center_axis',(1.,0.,0.));
#1038=DIRECTION('ref_axis',(0.,0.,1.));
#1039=DIRECTION('',(0.,0.0607571135710065,-0.998152580095107));
#1040=DIRECTION('',(0.,-1.,0.));
#1041=DIRECTION('',(0.,-0.0607571135710065,0.998152580095107));
#1042=DIRECTION('',(0.,-1.,0.));
#1043=DIRECTION('',(0.,0.,1.));
#1044=DIRECTION('center_axis',(-1.,0.,0.));
#1045=DIRECTION('ref_axis',(0.,0.,-1.));
#1046=DIRECTION('',(0.,-1.,0.));
#1047=DIRECTION('',(0.,0.0607571135710065,0.998152580095107));
#1048=DIRECTION('',(0.,1.,0.));
#1049=DIRECTION('',(0.,0.,1.));
#1050=DIRECTION('center_axis',(0.,0.,1.));
#1051=DIRECTION('ref_axis',(-1.,0.,0.));
#1052=DIRECTION('',(1.,0.,0.));
#1053=DIRECTION('center_axis',(-1.,0.,0.));
#1054=DIRECTION('ref_axis',(0.,0.,-1.));
#1055=DIRECTION('',(0.,-0.0607571135710065,0.998152580095107));
#1056=DIRECTION('',(0.,0.,-1.));
#1057=DIRECTION('',(0.,1.,0.));
#1058=DIRECTION('',(0.,0.0607571135710065,-0.998152580095107));
#1059=DIRECTION('',(0.,-1.,0.));
#1060=DIRECTION('center_axis',(0.,0.,1.));
#1061=DIRECTION('ref_axis',(-1.,0.,0.));
#1062=DIRECTION('',(1.,0.,0.));
#1063=DIRECTION('',(-1.,0.,0.));
#1064=DIRECTION('center_axis',(8.37904169528419E-17,-1.,0.));
#1065=DIRECTION('ref_axis',(1.,8.37904169528419E-17,0.));
#1066=DIRECTION('',(0.,0.,1.));
#1067=DIRECTION('',(-1.,-8.37904169528419E-17,0.));
#1068=DIRECTION('center_axis',(8.37904169528419E-17,-1.,0.));
#1069=DIRECTION('ref_axis',(1.,8.37904169528419E-17,0.));
#1070=DIRECTION('',(-1.,-8.37904169528419E-17,0.));
#1071=DIRECTION('',(0.,0.,1.));
#1072=DIRECTION('center_axis',(0.,0.998152580095107,0.0607571135710065));
#1073=DIRECTION('ref_axis',(0.,-0.0607571135710065,0.998152580095107));
#1074=DIRECTION('',(1.,0.,0.));
#1075=DIRECTION('',(0.0907595385299571,0.0605063590199713,-0.994033041042387));
#1076=DIRECTION('',(1.,0.,0.));
#1077=DIRECTION('',(0.,-0.0607571135710065,0.998152580095107));
#1078=DIRECTION('',(0.0907595385299568,-0.0605063590199713,0.994033041042387));
#1079=DIRECTION('',(1.,0.,0.));
#1080=DIRECTION('center_axis',(0.,1.,0.));
#1081=DIRECTION('ref_axis',(-1.,0.,0.));
#1082=DIRECTION('',(1.,0.,0.));
#1083=DIRECTION('',(0.,0.,1.));
#1084=DIRECTION('center_axis',(0.,1.,0.));
#1085=DIRECTION('ref_axis',(-1.,0.,0.));
#1086=DIRECTION('',(0.,0.,1.));
#1087=DIRECTION('',(1.,0.,0.));
#1088=DIRECTION('center_axis',(0.,0.,1.));
#1089=DIRECTION('ref_axis',(1.,0.,0.));
#1090=DIRECTION('',(0.,1.,0.));
#1091=DIRECTION('',(-1.,0.,0.));
#1092=DIRECTION('',(0.,1.,0.));
#1093=DIRECTION('center_axis',(0.,0.,1.));
#1094=DIRECTION('ref_axis',(1.,0.,0.));
#1095=DIRECTION('',(0.,-1.,0.));
#1096=DIRECTION('',(-1.,0.,0.));
#1097=DIRECTION('',(0.,-1.,0.));
#1098=DIRECTION('center_axis',(-1.,0.,0.));
#1099=DIRECTION('ref_axis',(0.,-1.,0.));
#1100=DIRECTION('center_axis',(1.,0.,0.));
#1101=DIRECTION('ref_axis',(0.,1.,0.));
#1102=DIRECTION('center_axis',(1.,0.,0.));
#1103=DIRECTION('ref_axis',(0.,0.,1.));
#1104=DIRECTION('',(0.,-0.0607571135710065,-0.998152580095107));
#1105=DIRECTION('',(0.,1.,0.));
#1106=DIRECTION('center_axis',(0.,0.,-1.));
#1107=DIRECTION('ref_axis',(1.,0.,0.));
#1108=DIRECTION('',(-1.,0.,0.));
#1109=DIRECTION('',(0.,-1.,0.));
#1110=DIRECTION('center_axis',(0.,-0.998152580095107,0.0607571135710065));
#1111=DIRECTION('ref_axis',(0.,-0.0607571135710065,-0.998152580095107));
#1112=DIRECTION('',(-0.0907595385299568,-0.0605063590199713,-0.994033041042387));
#1113=DIRECTION('',(-0.0907595385299571,0.0605063590199713,0.994033041042387));
#1114=DIRECTION('center_axis',(-0.995857639656377,0.,0.0909261323164516));
#1115=DIRECTION('ref_axis',(0.0909261323164516,0.,0.995857639656377));
#1116=DIRECTION('center_axis',(0.995857639656377,0.,0.0909261323164519));
#1117=DIRECTION('ref_axis',(0.0909261323164519,0.,-0.995857639656377));
#1118=DIRECTION('center_axis',(0.,0.998152580095107,0.0607571135710065));
#1119=DIRECTION('ref_axis',(0.,-0.0607571135710065,0.998152580095107));
#1120=CARTESIAN_POINT('',(0.,0.,0.));
#1121=CARTESIAN_POINT('Origin',(-126.040101846386,-87.1980123379071,110.190807341283));
#1122=CARTESIAN_POINT('',(-121.,-80.5184189747948,0.));
#1123=CARTESIAN_POINT('',(-116.006938988813,-85.5,0.));
#1124=CARTESIAN_POINT('Origin',(-115.979202045661,-80.4907458040898,0.));
#1125=CARTESIAN_POINT('',(-119.631375958704,-87.916291313261,39.696214432145));
#1126=CARTESIAN_POINT('',(-126.040101846386,-92.1887752383826,109.887021773428));
#1127=CARTESIAN_POINT('',(-124.610664156986,-82.9255284127854,39.5453693384177));
#1128=CARTESIAN_POINT('Origin',(-119.631375958704,-82.9255284127855,40.));
#1129=CARTESIAN_POINT('',(-131.019390044668,-87.1980123379071,109.736176679701));
#1130=CARTESIAN_POINT('Origin',(-61.5,-84.8652526185843,71.8668976666949));
#1131=CARTESIAN_POINT('',(-61.5,-92.5,115.));
#1132=CARTESIAN_POINT('',(-66.5,-87.4907458040898,115.));
#1133=CARTESIAN_POINT('Origin',(-61.5,-87.4907458040898,115.));
#1134=CARTESIAN_POINT('',(-66.5,-83.5342240649594,50.));
#1135=CARTESIAN_POINT('',(-66.5,-84.8652526185843,71.8668976666949));
#1136=CARTESIAN_POINT('',(-61.5,-88.5249869654349,49.696214432145));
#1137=CARTESIAN_POINT('Origin',(-61.5,-83.5342240649594,50.));
#1138=CARTESIAN_POINT('',(-61.5,-89.8560155190598,71.5631120988399));
#1139=CARTESIAN_POINT('Ctrl Pts',(-71.5,-87.916291313261,39.696214432145));
#1140=CARTESIAN_POINT('Ctrl Pts',(-69.2560052474359,-87.916291313261,39.696214432145));
#1141=CARTESIAN_POINT('Ctrl Pts',(-65.5298104102957,-87.996130297712,41.0078548909831));
#1142=CARTESIAN_POINT('Ctrl Pts',(-62.1843845536856,-88.2521391064562,45.213713891781));
#1143=CARTESIAN_POINT('Ctrl Pts',(-61.5,-88.4339263088091,48.2002179304356));
#1144=CARTESIAN_POINT('Ctrl Pts',(-61.5,-88.5249869654349,49.696214432145));
#1145=CARTESIAN_POINT('Ctrl Pts',(-71.5,-87.9634964335276,40.4717271222385));
#1146=CARTESIAN_POINT('Ctrl Pts',(-69.4308537663002,-87.9634964335276,40.4717271222385));
#1147=CARTESIAN_POINT('Ctrl Pts',(-65.9938784664821,-88.0368933171121,41.6768858736557));
#1148=CARTESIAN_POINT('Ctrl Pts',(-62.8945079065495,-88.2727234686059,45.5518214814109));
#1149=CARTESIAN_POINT('Ctrl Pts',(-62.252342909659,-88.4407333848517,48.3118057259599));
#1150=CARTESIAN_POINT('Ctrl Pts',(-62.2479982508547,-88.5249869654349,49.696214432145));
#1151=CARTESIAN_POINT('Ctrl Pts',(-71.5,-87.6885172822134,42.0412851936706));
#1152=CARTESIAN_POINT('Ctrl Pts',(-69.7795739875556,-87.6885172822134,42.0412851936706));
#1153=CARTESIAN_POINT('Ctrl Pts',(-66.9196611829556,-87.7526383212722,43.0337319708819));
#1154=CARTESIAN_POINT('Ctrl Pts',(-64.3112762135496,-87.9599163181922,46.2480018878226));
#1155=CARTESIAN_POINT('Ctrl Pts',(-63.753604301219,-88.1084901045071,48.555481089936));
#1156=CARTESIAN_POINT('Ctrl Pts',(-63.7406625307593,-88.1832127785856,49.717018078301));
#1157=CARTESIAN_POINT('Ctrl Pts',(-71.5,-86.0251031716516,44.2906438462253));
#1158=CARTESIAN_POINT('Ctrl Pts',(-70.2612291194313,-86.0251031716516,44.2906438462253));
#1159=CARTESIAN_POINT('Ctrl Pts',(-68.2010742061326,-86.0882828808318,44.993427156882));
#1160=CARTESIAN_POINT('Ctrl Pts',(-66.2898341168335,-86.2930022786878,47.298484710055));
#1161=CARTESIAN_POINT('Ctrl Pts',(-65.8637570873987,-86.4399278446631,48.9715650542389));
#1162=CARTESIAN_POINT('Ctrl Pts',(-65.844493715524,-86.5138942017648,49.8186287742814));
#1163=CARTESIAN_POINT('Ctrl Pts',(-71.5,-84.0909504718352,45.));
#1164=CARTESIAN_POINT('Ctrl Pts',(-70.3952574526861,-84.0909504718352,45.));
#1165=CARTESIAN_POINT('Ctrl Pts',(-68.555991676109,-84.1645650734988,45.6373885486898));
#1166=CARTESIAN_POINT('Ctrl Pts',(-66.874617618709,-84.401014213555,47.6989747066845));
#1167=CARTESIAN_POINT('Ctrl Pts',(-66.5103256418866,-84.5696071977663,49.1841895126199));
#1168=CARTESIAN_POINT('Ctrl Pts',(-66.5,-84.6541486409553,49.9318306779829));
#1169=CARTESIAN_POINT('Ctrl Pts',(-71.5,-82.9255284127855,45.));
#1170=CARTESIAN_POINT('Ctrl Pts',(-70.3780026237179,-82.9255284127855,45.));
#1171=CARTESIAN_POINT('Ctrl Pts',(-68.5149052051479,-83.0053673972365,45.6558202294191));
#1172=CARTESIAN_POINT('Ctrl Pts',(-66.8421922768428,-83.2613762059807,47.758749729818));
#1173=CARTESIAN_POINT('Ctrl Pts',(-66.5,-83.4431634083336,49.2520017491453));
#1174=CARTESIAN_POINT('Ctrl Pts',(-66.5,-83.5342240649594,50.));
#1175=CARTESIAN_POINT('',(-71.5,-82.9255284127855,45.));
#1176=CARTESIAN_POINT('',(-71.5,-87.916291313261,39.696214432145));
#1177=CARTESIAN_POINT('Origin',(-71.5,-82.9255284127855,40.));
#1178=CARTESIAN_POINT('Origin',(-71.5,-88.5249869654349,49.696214432145));
#1179=CARTESIAN_POINT('Origin',(-71.5,-83.5342240649594,50.));
#1180=CARTESIAN_POINT('Origin',(-128.304347826087,-82.9255284127855,40.));
#1181=CARTESIAN_POINT('',(-119.631375958704,-82.9255284127855,45.));
#1182=CARTESIAN_POINT('Origin',(-119.631375958704,-82.9255284127855,40.));
#1183=CARTESIAN_POINT('',(-128.304347826087,-87.916291313261,39.696214432145));
#1184=CARTESIAN_POINT('',(-128.304347826087,-82.9255284127855,45.));
#1185=CARTESIAN_POINT('Origin',(-119.631375958704,-82.9255284127855,40.));
#1186=CARTESIAN_POINT('Origin',(-119.631375958704,-82.9255284127855,40.));
#1187=CARTESIAN_POINT('Origin',(-131.5,92.5,115.));
#1188=CARTESIAN_POINT('',(-124.610664156986,82.9255284127855,39.5453693384178));
#1189=CARTESIAN_POINT('',(-124.610664156986,141.25,39.5453693384177));
#1190=CARTESIAN_POINT('',(-121.,80.5184189747948,0.));
#1191=CARTESIAN_POINT('',(-130.444152358582,86.8145205471829,103.435954403518));
#1192=CARTESIAN_POINT('',(-121.,-85.5,0.));
#1193=CARTESIAN_POINT('Origin',(-119.631375958704,141.25,40.));
#1194=CARTESIAN_POINT('',(-119.631375958704,82.9255284127855,45.));
#1195=CARTESIAN_POINT('',(-119.631375958704,141.25,45.));
#1196=CARTESIAN_POINT('Origin',(-119.631375958704,82.9255284127855,40.));
#1197=CARTESIAN_POINT('Origin',(-125.108695652174,190.,45.));
#1198=CARTESIAN_POINT('',(-71.5,82.9255284127855,45.));
#1199=CARTESIAN_POINT('',(-71.5,190.,45.));
#1200=CARTESIAN_POINT('',(3.19565217391304,82.9255284127855,45.));
#1201=CARTESIAN_POINT('Origin',(-71.5,190.,50.));
#1202=CARTESIAN_POINT('',(-66.5,83.5342240649594,50.));
#1203=CARTESIAN_POINT('',(-66.5,190.,50.));
#1204=CARTESIAN_POINT('Origin',(-71.5,83.5342240649594,50.));
#1205=CARTESIAN_POINT('Origin',(-66.5,190.,45.));
#1206=CARTESIAN_POINT('',(-66.5,87.4907458040898,115.));
#1207=CARTESIAN_POINT('',(-66.5,95.,115.));
#1208=CARTESIAN_POINT('',(-66.5,85.5666237199855,83.3894229040009));
#1209=CARTESIAN_POINT('Origin',(-1.59684675295112E-15,0.,115.));
#1210=CARTESIAN_POINT('',(126.506938988813,-92.5,115.));
#1211=CARTESIAN_POINT('',(-131.5,-92.5,115.));
#1212=CARTESIAN_POINT('',(131.5,-87.5184189747948,115.));
#1213=CARTESIAN_POINT('Origin',(126.479202045661,-87.4907458040898,115.));
#1214=CARTESIAN_POINT('',(131.5,87.5184189747948,115.));
#1215=CARTESIAN_POINT('',(131.5,-92.5,115.));
#1216=CARTESIAN_POINT('',(126.506938988813,92.5,115.));
#1217=CARTESIAN_POINT('Origin',(126.479202045661,87.4907458040898,115.));
#1218=CARTESIAN_POINT('',(-61.5,92.5,115.));
#1219=CARTESIAN_POINT('',(131.5,92.5,115.));
#1220=CARTESIAN_POINT('Origin',(-61.5,87.4907458040898,115.));
#1221=CARTESIAN_POINT('',(-62.5,-88.4925966432719,115.));
#1222=CARTESIAN_POINT('',(-62.5,88.4925966432719,115.));
#1223=CARTESIAN_POINT('',(-62.5,95.,115.));
#1224=CARTESIAN_POINT('',(127.483361636528,88.4925966432719,115.));
#1225=CARTESIAN_POINT('',(65.75,88.4925966432719,115.));
#1226=CARTESIAN_POINT('',(127.483361636528,-88.4925966432719,115.));
#1227=CARTESIAN_POINT('',(127.483361636528,-46.25,115.));
#1228=CARTESIAN_POINT('',(-65.75,-88.4925966432719,115.));
#1229=CARTESIAN_POINT('Origin',(125.4648641603,-86.8145205471829,103.890585065101));
#1230=CARTESIAN_POINT('',(116.006938988813,-85.5,0.));
#1231=CARTESIAN_POINT('',(121.,-80.5184189747948,0.));
#1232=CARTESIAN_POINT('Origin',(115.979202045661,-80.4907458040898,0.));
#1233=CARTESIAN_POINT('',(130.444152358582,-86.8145205471829,103.435954403518));
#1234=CARTESIAN_POINT('',(125.4648641603,-91.8052834476584,103.586799497246));
#1235=CARTESIAN_POINT('Origin',(131.5,-92.5,115.));
#1236=CARTESIAN_POINT('',(121.,80.5184189747948,0.));
#1237=CARTESIAN_POINT('',(121.,85.5,0.));
#1238=CARTESIAN_POINT('',(131.019390044668,87.1980123379071,109.736176679701));
#1239=CARTESIAN_POINT('Origin',(1.45592443132442E-14,0.,0.));
#1240=CARTESIAN_POINT('',(-69.,-85.5,0.));
#1241=CARTESIAN_POINT('',(121.,-85.5,0.));
#1242=CARTESIAN_POINT('',(-69.,-66.7360749041414,0.));
#1243=CARTESIAN_POINT('',(-69.,70.,0.));
#1244=CARTESIAN_POINT('',(106.,-66.7360749041414,0.));
#1245=CARTESIAN_POINT('',(-53.,-66.7360749041414,0.));
#1246=CARTESIAN_POINT('',(106.,66.7360749041414,0.));
#1247=CARTESIAN_POINT('',(106.,-33.3680374520707,0.));
#1248=CARTESIAN_POINT('',(-69.,66.7360749041414,0.));
#1249=CARTESIAN_POINT('',(53.,66.7360749041414,0.));
#1250=CARTESIAN_POINT('',(-69.,85.5,0.));
#1251=CARTESIAN_POINT('',(-69.,70.,0.));
#1252=CARTESIAN_POINT('',(116.006938988813,85.5,0.));
#1253=CARTESIAN_POINT('',(-121.,85.5,0.));
#1254=CARTESIAN_POINT('Origin',(115.979202045661,80.4907458040898,0.));
#1255=CARTESIAN_POINT('Origin',(126.040101846386,87.1980123379071,110.190807341283));
#1256=CARTESIAN_POINT('',(126.040101846386,92.1887752383826,109.887021773428));
#1257=CARTESIAN_POINT('Origin',(131.5,92.5,115.));
#1258=CARTESIAN_POINT('',(-69.,87.3260869565217,30.));
#1259=CARTESIAN_POINT('',(-69.,89.1005913816483,59.1525726985084));
#1260=CARTESIAN_POINT('',(-99.,87.3260869565217,30.));
#1261=CARTESIAN_POINT('',(31.25,87.3260869565217,30.));
#1262=CARTESIAN_POINT('',(-99.,85.5,0.));
#1263=CARTESIAN_POINT('',(-99.,90.0102644266988,74.0972012957662));
#1264=CARTESIAN_POINT('',(-116.006938988813,85.5,0.));
#1265=CARTESIAN_POINT('',(-121.,85.5,0.));
#1266=CARTESIAN_POINT('',(-119.631375958704,87.916291313261,39.696214432145));
#1267=CARTESIAN_POINT('',(-125.4648641603,91.8052834476584,103.586799497246));
#1268=CARTESIAN_POINT('',(-71.5,87.916291313261,39.696214432145));
#1269=CARTESIAN_POINT('',(3.19565217391304,87.916291313261,39.696214432145));
#1270=CARTESIAN_POINT('',(-61.5,88.5249869654349,49.696214432145));
#1271=CARTESIAN_POINT('Origin',(-71.5,88.5249869654349,49.696214432145));
#1272=CARTESIAN_POINT('',(-61.5,90.557386620461,83.0856373361458));
#1273=CARTESIAN_POINT('Origin',(-125.4648641603,86.8145205471829,103.890585065101));
#1274=CARTESIAN_POINT('Origin',(-115.979202045661,80.4907458040898,0.));
#1275=CARTESIAN_POINT('Origin',(-119.631375958704,82.9255284127855,40.));
#1276=CARTESIAN_POINT('Origin',(-119.631375958704,82.9255284127855,40.));
#1277=CARTESIAN_POINT('Origin',(-119.631375958704,82.9255284127855,40.));
#1278=CARTESIAN_POINT('Origin',(1.45592443132442E-14,0.,0.));
#1279=CARTESIAN_POINT('',(-99.,66.7360749041414,0.));
#1280=CARTESIAN_POINT('',(-99.,70.,0.));
#1281=CARTESIAN_POINT('',(-106.,66.7360749041414,0.));
#1282=CARTESIAN_POINT('',(53.,66.7360749041414,0.));
#1283=CARTESIAN_POINT('',(-106.,-66.7360749041414,0.));
#1284=CARTESIAN_POINT('',(-106.,33.3680374520707,0.));
#1285=CARTESIAN_POINT('',(-99.,-66.7360749041414,0.));
#1286=CARTESIAN_POINT('',(-53.,-66.7360749041414,0.));
#1287=CARTESIAN_POINT('',(-99.,-85.5,0.));
#1288=CARTESIAN_POINT('',(-99.,70.,0.));
#1289=CARTESIAN_POINT('',(121.,-85.5,0.));
#1290=CARTESIAN_POINT('Origin',(3.19565217391304,82.9255284127855,40.));
#1291=CARTESIAN_POINT('Origin',(-71.5,82.9255284127855,40.));
#1292=CARTESIAN_POINT('Ctrl Pts',(-61.5,88.5249869654349,49.696214432145));
#1293=CARTESIAN_POINT('Ctrl Pts',(-61.5,88.3883959804962,47.4522196795808));
#1294=CARTESIAN_POINT('Ctrl Pts',(-62.8116404588381,88.1615841208442,43.7260248424407));
#1295=CARTESIAN_POINT('Ctrl Pts',(-67.017499459636,87.9579495034853,40.3805989858306));
#1296=CARTESIAN_POINT('Ctrl Pts',(-70.0040034982906,87.916291313261,39.696214432145));
#1297=CARTESIAN_POINT('Ctrl Pts',(-71.5,87.916291313261,39.696214432145));
#1298=CARTESIAN_POINT('Ctrl Pts',(-62.2479982508547,88.5249869654349,49.696214432145));
#1299=CARTESIAN_POINT('Ctrl Pts',(-62.2545152390612,88.3986065945601,47.6196013728673));
#1300=CARTESIAN_POINT('Ctrl Pts',(-63.4790245408137,88.1891739840095,44.1793392376692));
#1301=CARTESIAN_POINT('Ctrl Pts',(-67.3663963473392,88.0018225248889,41.1009286251346));
#1302=CARTESIAN_POINT('Ctrl Pts',(-70.1205691775334,87.9634964335276,40.4717271222385));
#1303=CARTESIAN_POINT('Ctrl Pts',(-71.5,87.9634964335276,40.4717271222385));
#1304=CARTESIAN_POINT('Ctrl Pts',(-63.7406625307593,88.1832127785856,49.717018078301));
#1305=CARTESIAN_POINT('Ctrl Pts',(-63.7600751864488,88.0711287674679,47.9747125957535));
#1306=CARTESIAN_POINT('Ctrl Pts',(-64.8103902974813,87.8862912234106,45.1056253778207));
#1307=CARTESIAN_POINT('Ctrl Pts',(-68.0623900351633,87.7220374441295,42.5602208662341));
#1308=CARTESIAN_POINT('Ctrl Pts',(-70.3530493250371,87.6885172822134,42.0412851936706));
#1309=CARTESIAN_POINT('Ctrl Pts',(-71.5,87.6885172822134,42.0412851936706));
#1310=CARTESIAN_POINT('Ctrl Pts',(-65.844493715524,86.5138942017648,49.8186287742814));
#1311=CARTESIAN_POINT('Ctrl Pts',(-65.8733887733361,86.4029446661123,48.5480331942176));
#1312=CARTESIAN_POINT('Ctrl Pts',(-66.6627127803085,86.2202587909231,46.4756102739654));
#1313=CARTESIAN_POINT('Ctrl Pts',(-69.0249935008601,86.0581341026697,44.6588041153904));
#1314=CARTESIAN_POINT('Ctrl Pts',(-70.6741527462875,86.0251031716516,44.2906438462253));
#1315=CARTESIAN_POINT('Ctrl Pts',(-71.5,86.0251031716516,44.2906438462253));
#1316=CARTESIAN_POINT('Ctrl Pts',(-66.5,84.6541486409553,49.9318306779829));
#1317=CARTESIAN_POINT('Ctrl Pts',(-66.5154884628299,84.5273364761718,48.8103689299384));
#1318=CARTESIAN_POINT('Ctrl Pts',(-67.1984724591598,84.3171992785198,46.9646501582994));
#1319=CARTESIAN_POINT('Ctrl Pts',(-69.2908955986394,84.1294025610434,45.333716178561));
#1320=CARTESIAN_POINT('Ctrl Pts',(-70.7635049684574,84.0909504718352,45.));
#1321=CARTESIAN_POINT('Ctrl Pts',(-71.5,84.0909504718352,45.));
#1322=CARTESIAN_POINT('Ctrl Pts',(-66.5,83.5342240649594,50.));
#1323=CARTESIAN_POINT('Ctrl Pts',(-66.5,83.3976330800207,48.8780026237179));
#1324=CARTESIAN_POINT('Ctrl Pts',(-67.155820229419,83.1708212203687,47.0149052051479));
#1325=CARTESIAN_POINT('Ctrl Pts',(-69.258749729818,82.9671866030098,45.3421922768428));
#1326=CARTESIAN_POINT('Ctrl Pts',(-70.7520017491453,82.9255284127855,45.));
#1327=CARTESIAN_POINT('Ctrl Pts',(-71.5,82.9255284127855,45.));
#1328=CARTESIAN_POINT('Origin',(-61.5,83.5342240649594,50.));
#1329=CARTESIAN_POINT('Origin',(-61.5,85.5666237199855,83.3894229040009));
#1330=CARTESIAN_POINT('Origin',(-69.,140.,0.));
#1331=CARTESIAN_POINT('',(-69.,66.7360749041414,4.));
#1332=CARTESIAN_POINT('',(-69.,66.7360749041414,0.));
#1333=CARTESIAN_POINT('',(-69.,81.7360749041414,4.00000000000001));
#1334=CARTESIAN_POINT('',(-69.,70.,4.));
#1335=CARTESIAN_POINT('',(-69.,83.3186835997936,30.));
#1336=CARTESIAN_POINT('',(-69.,85.1079810612679,59.3956011527924));
#1337=CARTESIAN_POINT('',(-69.,140.,30.));
#1338=CARTESIAN_POINT('Origin',(-69.,140.,0.));
#1339=CARTESIAN_POINT('',(-69.,-87.3260869565217,30.));
#1340=CARTESIAN_POINT('',(-69.,-88.5837916227211,50.6622909447039));
#1341=CARTESIAN_POINT('',(-69.,-83.3186835997936,30.));
#1342=CARTESIAN_POINT('',(-69.,140.,30.));
#1343=CARTESIAN_POINT('',(-69.,-81.7360749041414,4.00000000000001));
#1344=CARTESIAN_POINT('',(-69.,-84.5911813023407,50.905319398988));
#1345=CARTESIAN_POINT('',(-69.,-66.7360749041414,4.));
#1346=CARTESIAN_POINT('',(-69.,70.,4.));
#1347=CARTESIAN_POINT('',(-69.,-66.7360749041414,0.));
#1348=CARTESIAN_POINT('Origin',(-99.,140.,30.));
#1349=CARTESIAN_POINT('',(-99.,83.3186835997936,30.));
#1350=CARTESIAN_POINT('',(-99.,140.,30.));
#1351=CARTESIAN_POINT('',(-99.,81.7360749041414,4.00000000000001));
#1352=CARTESIAN_POINT('',(-99.,86.0176541063184,74.3402297500502));
#1353=CARTESIAN_POINT('',(-99.,66.7360749041414,4.));
#1354=CARTESIAN_POINT('',(-99.,70.,4.));
#1355=CARTESIAN_POINT('',(-99.,66.7360749041414,15.));
#1356=CARTESIAN_POINT('Origin',(-69.,140.,30.));
#1357=CARTESIAN_POINT('',(31.25,83.3186835997936,30.));
#1358=CARTESIAN_POINT('Origin',(-99.,140.,30.));
#1359=CARTESIAN_POINT('',(-99.,-87.3260869565217,30.));
#1360=CARTESIAN_POINT('',(-99.,-89.4934646677716,65.6069195419617));
#1361=CARTESIAN_POINT('',(-99.,-66.7360749041414,4.));
#1362=CARTESIAN_POINT('',(-99.,-66.7360749041414,15.));
#1363=CARTESIAN_POINT('',(-99.,-81.7360749041414,4.00000000000001));
#1364=CARTESIAN_POINT('',(-99.,70.,4.));
#1365=CARTESIAN_POINT('',(-99.,-83.3186835997936,30.));
#1366=CARTESIAN_POINT('',(-99.,-85.5008543473912,65.8499479962458));
#1367=CARTESIAN_POINT('',(-99.,140.,30.));
#1368=CARTESIAN_POINT('Origin',(-69.,140.,30.));
#1369=CARTESIAN_POINT('',(-100.25,-87.3260869565218,30.));
#1370=CARTESIAN_POINT('',(-100.25,-83.3186835997936,30.));
#1371=CARTESIAN_POINT('Origin',(-106.,-66.7360749041414,0.));
#1372=CARTESIAN_POINT('',(-106.,-66.7360749041414,4.));
#1373=CARTESIAN_POINT('',(-106.,-66.7360749041414,0.));
#1374=CARTESIAN_POINT('',(-53.,-66.7360749041414,4.));
#1375=CARTESIAN_POINT('Origin',(-106.,-66.7360749041414,0.));
#1376=CARTESIAN_POINT('',(106.,-66.7360749041414,4.));
#1377=CARTESIAN_POINT('',(-53.,-66.7360749041414,4.));
#1378=CARTESIAN_POINT('',(106.,-66.7360749041414,0.));
#1379=CARTESIAN_POINT('Origin',(-131.5,-88.5073896796196,115.243028454284));
#1380=CARTESIAN_POINT('',(-117.348579027833,-81.7360749041414,4.));
#1381=CARTESIAN_POINT('',(-65.75,-81.7360749041414,4.00000000000001));
#1382=CARTESIAN_POINT('',(-120.726839897398,-83.9882488171849,41.));
#1383=CARTESIAN_POINT('',(-127.030488186488,-88.1906810099114,110.039957451935));
#1384=CARTESIAN_POINT('',(-62.5,-83.9882488171849,41.));
#1385=CARTESIAN_POINT('',(-128.304347826087,-83.9882488171849,41.));
#1386=CARTESIAN_POINT('',(-62.5,-85.8634051986794,71.8061405531239));
#1387=CARTESIAN_POINT('',(117.348579027833,-81.7360749041414,4.));
#1388=CARTESIAN_POINT('',(126.455250500401,-87.8071892191872,103.739735175752));
#1389=CARTESIAN_POINT('',(-65.75,-81.7360749041414,4.00000000000001));
#1390=CARTESIAN_POINT('Origin',(106.,66.7360749041414,0.));
#1391=CARTESIAN_POINT('',(-106.,66.7360749041414,4.));
#1392=CARTESIAN_POINT('',(53.,66.7360749041414,4.));
#1393=CARTESIAN_POINT('',(-106.,66.7360749041414,0.));
#1394=CARTESIAN_POINT('Origin',(106.,66.7360749041414,0.));
#1395=CARTESIAN_POINT('',(106.,66.7360749041414,4.));
#1396=CARTESIAN_POINT('',(106.,66.7360749041414,0.));
#1397=CARTESIAN_POINT('',(53.,66.7360749041414,4.));
#1398=CARTESIAN_POINT('Origin',(1.45592443132442E-14,0.,4.));
#1399=CARTESIAN_POINT('',(-106.,33.3680374520707,4.));
#1400=CARTESIAN_POINT('',(-117.348579027833,81.7360749041414,4.));
#1401=CARTESIAN_POINT('',(65.75,81.7360749041414,4.00000000000001));
#1402=CARTESIAN_POINT('',(-117.348579027833,46.25,4.));
#1403=CARTESIAN_POINT('Origin',(1.45592443132442E-14,0.,4.));
#1404=CARTESIAN_POINT('',(117.348579027833,81.7360749041414,4.));
#1405=CARTESIAN_POINT('',(117.348579027833,-46.25,4.));
#1406=CARTESIAN_POINT('',(65.75,81.7360749041414,4.00000000000001));
#1407=CARTESIAN_POINT('',(106.,-33.3680374520707,4.));
#1408=CARTESIAN_POINT('Origin',(-106.,66.7360749041414,0.));
#1409=CARTESIAN_POINT('Origin',(106.,-66.7360749041414,0.));
#1410=CARTESIAN_POINT('Origin',(-62.5,190.,45.));
#1411=CARTESIAN_POINT('',(-62.5,83.9882488171849,41.));
#1412=CARTESIAN_POINT('',(-62.5,86.5647763000806,83.3286657904299));
#1413=CARTESIAN_POINT('',(-62.5,190.,41.));
#1414=CARTESIAN_POINT('Origin',(-125.108695652174,190.,41.));
#1415=CARTESIAN_POINT('',(-120.726839897398,83.9882488171849,41.));
#1416=CARTESIAN_POINT('',(3.19565217391304,83.9882488171849,41.));
#1417=CARTESIAN_POINT('',(-120.726839897398,141.25,41.));
#1418=CARTESIAN_POINT('Origin',(131.5,88.5073896796196,115.243028454284));
#1419=CARTESIAN_POINT('',(127.030488186488,88.1906810099114,110.039957451935));
#1420=CARTESIAN_POINT('',(-126.455250500401,87.8071892191872,103.739735175752));
#1421=CARTESIAN_POINT('Origin',(127.516569441375,-92.5,115.363704529266));
#1422=CARTESIAN_POINT('Origin',(-127.516569441375,92.5,115.363704529266));
#1423=CARTESIAN_POINT('Origin',(-131.5,-92.5,115.));
#1424=UNCERTAINTY_MEASURE_WITH_UNIT(LENGTH_MEASURE(0.01),#1428,
'DISTANCE_ACCURACY_VALUE',
'Maximum model space distance between geometric entities at asserted c
onnectivities');
#1425=UNCERTAINTY_MEASURE_WITH_UNIT(LENGTH_MEASURE(0.01),#1428,
'DISTANCE_ACCURACY_VALUE',
'Maximum model space distance between geometric entities at asserted c
onnectivities');
#1426=(
GEOMETRIC_REPRESENTATION_CONTEXT(3)
GLOBAL_UNCERTAINTY_ASSIGNED_CONTEXT((#1424))
GLOBAL_UNIT_ASSIGNED_CONTEXT((#1428,#1430,#1431))
REPRESENTATION_CONTEXT('','3D')
);
#1427=(
GEOMETRIC_REPRESENTATION_CONTEXT(3)
GLOBAL_UNCERTAINTY_ASSIGNED_CONTEXT((#1425))
GLOBAL_UNIT_ASSIGNED_CONTEXT((#1428,#1430,#1431))
REPRESENTATION_CONTEXT('','3D')
);
#1428=(
LENGTH_UNIT()
NAMED_UNIT(*)
SI_UNIT(.MILLI.,.METRE.)
);
#1429=(
LENGTH_UNIT()
NAMED_UNIT(*)
SI_UNIT($,.METRE.)
);
#1430=(
NAMED_UNIT(*)
PLANE_ANGLE_UNIT()
SI_UNIT($,.RADIAN.)
);
#1431=(
NAMED_UNIT(*)
SI_UNIT($,.STERADIAN.)
SOLID_ANGLE_UNIT()
);
#1432=SHAPE_DEFINITION_REPRESENTATION(#1433,#1434);
#1433=PRODUCT_DEFINITION_SHAPE('',$,#1436);
#1434=SHAPE_REPRESENTATION('',(#834),#1426);
#1435=PRODUCT_DEFINITION_CONTEXT('part definition',#1440,'design');
#1436=PRODUCT_DEFINITION('2026-07-16-23-26-37-977','PR_BOT',#1437,#1435);
#1437=PRODUCT_DEFINITION_FORMATION('',$,#1442);
#1438=PRODUCT_RELATED_PRODUCT_CATEGORY('PR_BOT','PR_BOT',(#1442));
#1439=APPLICATION_PROTOCOL_DEFINITION('international standard',
'automotive_design',2009,#1440);
#1440=APPLICATION_CONTEXT(
'Core Data for Automotive Mechanical Design Process');
#1441=PRODUCT_CONTEXT('part definition',#1440,'mechanical');
#1442=PRODUCT('2026-07-16-23-26-37-977','PR_BOT',$,(#1441));
#1443=PRESENTATION_STYLE_ASSIGNMENT((#1444));
#1444=SURFACE_STYLE_USAGE(.BOTH.,#1445);
#1445=SURFACE_SIDE_STYLE('',(#1446));
#1446=SURFACE_STYLE_FILL_AREA(#1447);
#1447=FILL_AREA_STYLE('Steel - Satin',(#1448));
#1448=FILL_AREA_STYLE_COLOUR('Steel - Satin',#1449);
#1449=COLOUR_RGB('Steel - Satin',0.627450980392157,0.627450980392157,0.627450980392157);
ENDSEC;
END-ISO-10303-21;
